<svg width="1920" height="960" viewBox="0 0 1920 960" fill="none" xmlns="http://www.w3.org/2000/svg">
<g opacity="0.5">
<path d="M1791.52 853.563C1788.49 858.852 1781.75 860.683 1776.46 857.653L1739.58 836.522C1734.29 833.492 1732.46 826.748 1735.49 821.46L1756.62 784.576C1759.65 779.288 1766.39 777.457 1771.68 780.487L1808.56 801.618C1813.85 804.648 1815.68 811.391 1812.65 816.68L1791.52 853.563Z" fill="#32BA46"/>
<path d="M1761.78 840.527C1758.02 838.376 1754.91 835.273 1752.73 831.517L1742.72 829.607L1749.51 821.738C1748.93 816.503 1750 811.349 1752.62 806.779C1759.4 794.947 1774.53 790.84 1786.36 797.619C1798.2 804.398 1802.31 819.537 1795.53 831.365C1788.74 843.193 1773.6 847.304 1761.78 840.527ZM1755.12 828.223L1755.54 829.001C1757.4 832.496 1760.19 835.38 1763.61 837.335C1773.68 843.106 1786.56 839.607 1792.33 829.534C1798.1 819.466 1794.6 806.579 1784.53 800.808C1774.46 795.038 1761.58 798.54 1755.81 808.608C1753.46 812.706 1752.58 817.356 1753.26 822.056L1753.38 822.887L1749.67 827.186L1755.12 828.223Z" fill="white"/>
<path d="M1767.96 804.622C1767.96 804.622 1770.48 803.145 1771.58 803.605C1772.68 804.065 1774 804.822 1773.97 805.7C1773.94 806.573 1773.3 811.387 1773.3 811.387C1773.3 811.387 1773.19 812.21 1772.4 812.623C1771.61 813.032 1770.12 813.435 1770.12 813.435C1770.12 813.435 1769.21 813.802 1769.33 814.817C1769.45 815.832 1769.51 817.606 1770.23 820.252C1770.94 822.895 1773.48 825.941 1773.48 825.941C1773.48 825.941 1773.91 826.268 1774.37 826.144C1774.82 826.019 1777.56 824.94 1777.56 824.94C1777.56 824.94 1778.45 824.573 1779.08 825.449C1779.71 826.326 1782.33 830.261 1782.33 830.261C1782.33 830.261 1782.67 830.664 1782.3 831.317C1781.93 831.965 1780.75 833.406 1779.91 833.636C1779.06 833.865 1776.54 834.623 1774.18 833.269C1771.82 831.915 1767.3 826.774 1766.02 822.057C1764.74 817.342 1763.82 812.781 1764.77 809.652C1765.73 806.516 1766.53 805.318 1767.96 804.622Z" fill="white"/>
</g>
<g opacity="0.5">
<path d="M1299.94 322.826C1302.77 329.067 1300 336.416 1293.76 339.241L1250.23 358.942C1243.99 361.767 1236.64 358.998 1233.82 352.757L1214.11 309.231C1211.29 302.991 1214.06 295.641 1220.3 292.816L1263.83 273.115C1270.07 270.29 1277.42 273.06 1280.24 279.3L1299.94 322.826Z" fill="#318BF4"/>
<path d="M1276.57 347.019L1265.08 321.634L1273.61 317.777L1270.4 307.303L1260.6 311.738L1257.74 305.42C1256.45 302.554 1256.36 300.243 1260.47 298.383L1265.71 296.011L1261.7 287.161C1260.74 287.45 1257.51 288.59 1253.89 290.23C1246.34 293.648 1243.25 300.598 1247.09 309.066L1250.39 316.362L1241.84 320.23L1246.32 330.126L1254.87 326.258L1266.36 351.647L1276.58 347.023L1276.57 347.019Z" fill="white"/>
</g>
<path d="M264.67 1.25856C228.877 22.088 213.835 67.2659 215.082 108.686C216.328 150.106 230.639 189.849 240.129 230.21C249.619 270.571 253.97 314.617 236.306 352.082C204.871 418.73 121.177 437.068 56.2552 471.931C-41.9799 524.672 -108.093 632.543 -110.535 744.073" stroke="#2F93FD" stroke-miterlimit="10"/>
<path d="M239.637 -11.6377C203.809 9.22786 188.729 54.4448 189.951 95.891C191.172 137.337 205.466 177.098 214.937 217.479C224.407 257.86 228.733 301.932 211.035 339.434C179.539 406.145 95.7836 424.547 30.8008 459.474C-67.5264 512.311 -133.747 620.294 -136.26 731.899" stroke="#2F93FD" stroke-miterlimit="10"/>
<path d="M214.603 -24.5334C178.775 -3.66789 163.696 41.549 164.917 82.9952C166.138 124.441 180.433 164.202 189.903 204.584C199.373 244.965 203.699 289.037 186.001 326.538C154.506 393.249 70.7499 411.651 5.7671 446.579C-92.5601 499.416 -158.78 607.398 -161.294 719.003" stroke="#2F93FD" stroke-miterlimit="10"/>
<path d="M188.878 -36.7075C153.084 -15.8781 138.042 29.2998 139.289 70.7197C140.536 112.14 154.846 151.883 164.336 192.244C173.826 232.605 178.177 276.65 160.513 314.116C129.078 380.764 45.3843 399.102 -19.5376 433.965C-117.773 486.706 -183.885 594.577 -186.328 706.107" stroke="#2F93FD" stroke-miterlimit="10"/>
<path d="M1880.96 907.768C1881.43 907.768 1881.82 907.374 1881.82 906.888C1881.82 906.402 1881.43 906.008 1880.96 906.008C1880.48 906.008 1880.09 906.402 1880.09 906.888C1880.09 907.374 1880.48 907.768 1880.96 907.768Z" fill="white"/>
<path d="M1889.44 907.768C1889.92 907.768 1890.31 907.374 1890.31 906.888C1890.31 906.402 1889.92 906.008 1889.44 906.008C1888.96 906.008 1888.58 906.402 1888.58 906.888C1888.58 907.374 1888.96 907.768 1889.44 907.768Z" fill="white"/>
<path d="M1897.92 907.768C1898.4 907.768 1898.78 907.374 1898.78 906.888C1898.78 906.402 1898.4 906.008 1897.92 906.008C1897.44 906.008 1897.05 906.402 1897.05 906.888C1897.05 907.374 1897.44 907.768 1897.92 907.768Z" fill="white"/>
<path d="M1906.41 907.768C1906.88 907.768 1907.27 907.374 1907.27 906.888C1907.27 906.402 1906.88 906.008 1906.41 906.008C1905.93 906.008 1905.54 906.402 1905.54 906.888C1905.54 907.374 1905.93 907.768 1906.41 907.768Z" fill="white"/>
<path d="M1914.88 907.768C1915.36 907.768 1915.75 907.374 1915.75 906.888C1915.75 906.402 1915.36 906.008 1914.88 906.008C1914.41 906.008 1914.02 906.402 1914.02 906.888C1914.02 907.374 1914.41 907.768 1914.88 907.768Z" fill="white"/>
<path d="M1880.96 916.397C1881.43 916.397 1881.82 916.003 1881.82 915.517C1881.82 915.031 1881.43 914.637 1880.96 914.637C1880.48 914.637 1880.09 915.031 1880.09 915.517C1880.09 916.003 1880.48 916.397 1880.96 916.397Z" fill="white"/>
<path d="M1889.44 916.397C1889.92 916.397 1890.31 916.003 1890.31 915.517C1890.31 915.031 1889.92 914.637 1889.44 914.637C1888.96 914.637 1888.58 915.031 1888.58 915.517C1888.58 916.003 1888.96 916.397 1889.44 916.397Z" fill="white"/>
<path d="M1897.92 916.397C1898.4 916.397 1898.78 916.003 1898.78 915.517C1898.78 915.031 1898.4 914.637 1897.92 914.637C1897.44 914.637 1897.05 915.031 1897.05 915.517C1897.05 916.003 1897.44 916.397 1897.92 916.397Z" fill="white"/>
<path d="M1906.41 916.397C1906.88 916.397 1907.27 916.003 1907.27 915.517C1907.27 915.031 1906.88 914.637 1906.41 914.637C1905.93 914.637 1905.54 915.031 1905.54 915.517C1905.54 916.003 1905.93 916.397 1906.41 916.397Z" fill="white"/>
<path d="M1914.88 916.397C1915.36 916.397 1915.75 916.003 1915.75 915.517C1915.75 915.031 1915.36 914.637 1914.88 914.637C1914.41 914.637 1914.02 915.031 1914.02 915.517C1914.02 916.003 1914.41 916.397 1914.88 916.397Z" fill="white"/>
<path d="M1880.96 925.018C1881.43 925.018 1881.82 924.624 1881.82 924.138C1881.82 923.652 1881.43 923.258 1880.96 923.258C1880.48 923.258 1880.09 923.652 1880.09 924.138C1880.09 924.624 1880.48 925.018 1880.96 925.018Z" fill="white"/>
<path d="M1889.44 925.018C1889.92 925.018 1890.31 924.624 1890.31 924.138C1890.31 923.652 1889.92 923.258 1889.44 923.258C1888.96 923.258 1888.58 923.652 1888.58 924.138C1888.58 924.624 1888.96 925.018 1889.44 925.018Z" fill="white"/>
<path d="M1897.92 925.018C1898.4 925.018 1898.78 924.624 1898.78 924.138C1898.78 923.652 1898.4 923.258 1897.92 923.258C1897.44 923.258 1897.05 923.652 1897.05 924.138C1897.05 924.624 1897.44 925.018 1897.92 925.018Z" fill="white"/>
<path d="M1906.41 925.018C1906.88 925.018 1907.27 924.624 1907.27 924.138C1907.27 923.652 1906.88 923.258 1906.41 923.258C1905.93 923.258 1905.54 923.652 1905.54 924.138C1905.54 924.624 1905.93 925.018 1906.41 925.018Z" fill="white"/>
<path d="M1914.88 925.018C1915.36 925.018 1915.75 924.624 1915.75 924.138C1915.75 923.652 1915.36 923.258 1914.88 923.258C1914.41 923.258 1914.02 923.652 1914.02 924.138C1914.02 924.624 1914.41 925.018 1914.88 925.018Z" fill="white"/>
<path d="M1880.96 933.638C1881.43 933.638 1881.82 933.244 1881.82 932.758C1881.82 932.272 1881.43 931.878 1880.96 931.878C1880.48 931.878 1880.09 932.272 1880.09 932.758C1880.09 933.244 1880.48 933.638 1880.96 933.638Z" fill="white"/>
<path d="M1889.44 933.638C1889.92 933.638 1890.31 933.244 1890.31 932.758C1890.31 932.272 1889.92 931.878 1889.44 931.878C1888.96 931.878 1888.58 932.272 1888.58 932.758C1888.58 933.244 1888.96 933.638 1889.44 933.638Z" fill="white"/>
<path d="M1897.92 933.638C1898.4 933.638 1898.78 933.244 1898.78 932.758C1898.78 932.272 1898.4 931.878 1897.92 931.878C1897.44 931.878 1897.05 932.272 1897.05 932.758C1897.05 933.244 1897.44 933.638 1897.92 933.638Z" fill="white"/>
<path d="M1906.41 933.638C1906.88 933.638 1907.27 933.244 1907.27 932.758C1907.27 932.272 1906.88 931.878 1906.41 931.878C1905.93 931.878 1905.54 932.272 1905.54 932.758C1905.54 933.244 1905.93 933.638 1906.41 933.638Z" fill="white"/>
<path d="M1914.88 933.638C1915.36 933.638 1915.75 933.244 1915.75 932.758C1915.75 932.272 1915.36 931.878 1914.88 931.878C1914.41 931.878 1914.02 932.272 1914.02 932.758C1914.02 933.244 1914.41 933.638 1914.88 933.638Z" fill="white"/>
<path d="M1880.87 871.768C1881.34 871.768 1881.73 871.374 1881.73 870.888C1881.73 870.402 1881.34 870.008 1880.87 870.008C1880.39 870.008 1880 870.402 1880 870.888C1880 871.374 1880.39 871.768 1880.87 871.768Z" fill="white"/>
<path d="M1889.35 871.768C1889.83 871.768 1890.22 871.374 1890.22 870.888C1890.22 870.402 1889.83 870.008 1889.35 870.008C1888.87 870.008 1888.49 870.402 1888.49 870.888C1888.49 871.374 1888.87 871.768 1889.35 871.768Z" fill="white"/>
<path d="M1897.83 871.768C1898.31 871.768 1898.69 871.374 1898.69 870.888C1898.69 870.402 1898.31 870.008 1897.83 870.008C1897.35 870.008 1896.96 870.402 1896.96 870.888C1896.96 871.374 1897.35 871.768 1897.83 871.768Z" fill="white"/>
<path d="M1906.32 871.768C1906.79 871.768 1907.18 871.374 1907.18 870.888C1907.18 870.402 1906.79 870.008 1906.32 870.008C1905.84 870.008 1905.45 870.402 1905.45 870.888C1905.45 871.374 1905.84 871.768 1906.32 871.768Z" fill="white"/>
<path d="M1914.79 871.768C1915.27 871.768 1915.66 871.374 1915.66 870.888C1915.66 870.402 1915.27 870.008 1914.79 870.008C1914.32 870.008 1913.93 870.402 1913.93 870.888C1913.93 871.374 1914.32 871.768 1914.79 871.768Z" fill="white"/>
<path d="M1880.87 880.397C1881.34 880.397 1881.73 880.003 1881.73 879.517C1881.73 879.031 1881.34 878.637 1880.87 878.637C1880.39 878.637 1880 879.031 1880 879.517C1880 880.003 1880.39 880.397 1880.87 880.397Z" fill="white"/>
<path d="M1889.35 880.397C1889.83 880.397 1890.22 880.003 1890.22 879.517C1890.22 879.031 1889.83 878.637 1889.35 878.637C1888.87 878.637 1888.49 879.031 1888.49 879.517C1888.49 880.003 1888.87 880.397 1889.35 880.397Z" fill="white"/>
<path d="M1897.83 880.397C1898.31 880.397 1898.69 880.003 1898.69 879.517C1898.69 879.031 1898.31 878.637 1897.83 878.637C1897.35 878.637 1896.96 879.031 1896.96 879.517C1896.96 880.003 1897.35 880.397 1897.83 880.397Z" fill="white"/>
<path d="M1906.32 880.397C1906.79 880.397 1907.18 880.003 1907.18 879.517C1907.18 879.031 1906.79 878.637 1906.32 878.637C1905.84 878.637 1905.45 879.031 1905.45 879.517C1905.45 880.003 1905.84 880.397 1906.32 880.397Z" fill="white"/>
<path d="M1914.79 880.397C1915.27 880.397 1915.66 880.003 1915.66 879.517C1915.66 879.031 1915.27 878.637 1914.79 878.637C1914.32 878.637 1913.93 879.031 1913.93 879.517C1913.93 880.003 1914.32 880.397 1914.79 880.397Z" fill="white"/>
<path d="M1880.87 889.018C1881.34 889.018 1881.73 888.624 1881.73 888.138C1881.73 887.652 1881.34 887.258 1880.87 887.258C1880.39 887.258 1880 887.652 1880 888.138C1880 888.624 1880.39 889.018 1880.87 889.018Z" fill="white"/>
<path d="M1889.35 889.018C1889.83 889.018 1890.22 888.624 1890.22 888.138C1890.22 887.652 1889.83 887.258 1889.35 887.258C1888.87 887.258 1888.49 887.652 1888.49 888.138C1888.49 888.624 1888.87 889.018 1889.35 889.018Z" fill="white"/>
<path d="M1897.83 889.018C1898.31 889.018 1898.69 888.624 1898.69 888.138C1898.69 887.652 1898.31 887.258 1897.83 887.258C1897.35 887.258 1896.96 887.652 1896.96 888.138C1896.96 888.624 1897.35 889.018 1897.83 889.018Z" fill="white"/>
<path d="M1906.32 889.018C1906.79 889.018 1907.18 888.624 1907.18 888.138C1907.18 887.652 1906.79 887.258 1906.32 887.258C1905.84 887.258 1905.45 887.652 1905.45 888.138C1905.45 888.624 1905.84 889.018 1906.32 889.018Z" fill="white"/>
<path d="M1914.79 889.018C1915.27 889.018 1915.66 888.624 1915.66 888.138C1915.66 887.652 1915.27 887.258 1914.79 887.258C1914.32 887.258 1913.93 887.652 1913.93 888.138C1913.93 888.624 1914.32 889.018 1914.79 889.018Z" fill="white"/>
<path d="M1880.87 897.638C1881.34 897.638 1881.73 897.244 1881.73 896.758C1881.73 896.272 1881.34 895.878 1880.87 895.878C1880.39 895.878 1880 896.272 1880 896.758C1880 897.244 1880.39 897.638 1880.87 897.638Z" fill="white"/>
<path d="M1889.35 897.638C1889.83 897.638 1890.22 897.244 1890.22 896.758C1890.22 896.272 1889.83 895.878 1889.35 895.878C1888.87 895.878 1888.49 896.272 1888.49 896.758C1888.49 897.244 1888.87 897.638 1889.35 897.638Z" fill="white"/>
<path d="M1897.83 897.638C1898.31 897.638 1898.69 897.244 1898.69 896.758C1898.69 896.272 1898.31 895.878 1897.83 895.878C1897.35 895.878 1896.96 896.272 1896.96 896.758C1896.96 897.244 1897.35 897.638 1897.83 897.638Z" fill="white"/>
<path d="M1906.32 897.638C1906.79 897.638 1907.18 897.244 1907.18 896.758C1907.18 896.272 1906.79 895.878 1906.32 895.878C1905.84 895.878 1905.45 896.272 1905.45 896.758C1905.45 897.244 1905.84 897.638 1906.32 897.638Z" fill="white"/>
<path d="M1914.79 897.638C1915.27 897.638 1915.66 897.244 1915.66 896.758C1915.66 896.272 1915.27 895.878 1914.79 895.878C1914.32 895.878 1913.93 896.272 1913.93 896.758C1913.93 897.244 1914.32 897.638 1914.79 897.638Z" fill="white"/>
<path d="M2024.79 175.096C2016.14 208.029 1983.64 229.86 1950.55 237.96C1917.45 246.06 1882.82 243.441 1848.76 244.776C1814.69 246.112 1778.84 252.328 1753.03 274.545C1707.11 314.077 1710.94 384.418 1697.56 443.511C1677.32 532.924 1606.35 608.979 1518.51 635.384" stroke="#70CD91" stroke-miterlimit="10"/>
<path d="M2040.5 192.103C2031.83 225.071 1999.31 246.941 1966.2 255.067C1933.09 263.192 1898.45 260.59 1864.37 261.945C1830.3 263.301 1794.43 269.543 1768.59 291.794C1722.64 331.388 1726.44 401.793 1713.02 460.948C1692.72 550.455 1621.69 626.619 1533.8 653.098" stroke="#70CD91" stroke-miterlimit="10"/>
<path d="M2056.22 209.11C2047.54 242.078 2015.02 263.948 1981.91 272.074C1948.8 280.199 1914.16 277.596 1880.08 278.952C1846.01 280.308 1810.14 286.549 1784.3 308.801C1738.35 348.395 1742.15 418.8 1728.73 477.955C1708.44 567.462 1637.4 643.626 1549.52 670.105" stroke="#70CD91" stroke-miterlimit="10"/>
<path d="M2071.51 226.824C2062.86 259.757 2030.36 281.588 1997.26 289.688C1964.17 297.788 1929.54 295.168 1895.47 296.504C1861.41 297.84 1825.55 304.056 1799.74 326.273C1753.83 365.804 1757.66 436.146 1744.28 495.239C1724.04 584.652 1653.07 660.706 1565.23 687.112" stroke="#70CD91" stroke-miterlimit="10"/>
<g opacity="0.5">
<path d="M1045.98 736.631C1043.74 741.059 1038.33 742.834 1033.9 740.594L1003.02 724.977C998.59 722.738 996.816 717.332 999.055 712.904L1014.67 682.018C1016.91 677.59 1022.32 675.815 1026.75 678.055L1057.63 693.672C1062.06 695.911 1063.83 701.317 1061.59 705.745L1045.98 736.631Z" fill="url(#paint0_radial_2_510)"/>
<path d="M1028.38 731.717L1013.44 724.16C1006.81 720.807 1004.14 712.681 1007.49 706.05L1014.15 692.882C1017.51 686.251 1025.63 683.583 1032.26 686.936L1047.21 694.493C1053.84 697.846 1056.51 705.972 1053.15 712.603L1046.49 725.771C1043.14 732.401 1035.02 735.069 1028.38 731.717ZM1030.91 689.609C1025.75 687 1019.43 689.077 1016.83 694.233L1010.17 707.402C1007.56 712.558 1009.63 718.878 1014.79 721.487L1029.74 729.044C1034.89 731.651 1041.21 729.576 1043.82 724.419L1050.48 711.251C1053.09 706.094 1051.01 699.773 1045.86 697.166L1030.91 689.609Z" fill="white"/>
<path d="M1024.91 720.033C1019 717.047 1016.63 709.817 1019.62 703.915C1022.6 698.013 1029.84 695.635 1035.74 698.619C1041.64 701.604 1044.01 708.835 1041.03 714.741C1038.04 720.643 1030.82 723.019 1024.91 720.033ZM1034.39 701.292C1029.96 699.053 1024.53 700.833 1022.29 705.261C1020.05 709.69 1021.83 715.116 1026.26 717.357C1030.69 719.596 1036.12 717.814 1038.36 713.386C1040.6 708.958 1038.81 703.532 1034.39 701.292Z" fill="white"/>
<path d="M1048.33 705.403C1047.71 706.63 1046.22 707.12 1044.99 706.5C1043.77 705.88 1043.27 704.383 1043.89 703.157C1044.51 701.93 1046.01 701.438 1047.24 702.058C1048.47 702.678 1048.96 704.173 1048.33 705.403Z" fill="white"/>
</g>
<g opacity="0.5">
<path d="M133.047 796.97C134.834 801.6 132.529 806.801 127.899 808.588L95.6102 821.047C90.9806 822.834 85.7791 820.529 83.9926 815.899L71.5331 783.61C69.7466 778.981 72.0516 773.779 76.6812 771.993L108.97 759.533C113.6 757.747 118.801 760.052 120.588 764.681L133.047 796.97Z" fill="#7BC5F8"/>
<path d="M113.318 774.757C112.653 775.249 112.052 775.444 112.052 775.444L112.023 775.294C112.503 774.473 113.595 772.096 113.517 771.21C113.485 770.826 113.32 770.754 113.316 770.743L111.448 772.553L109.906 774.118C108.09 773.251 105.801 773.135 103.621 773.977C99.7382 775.475 97.6499 779.441 98.9596 782.835C99.1994 783.457 99.7293 784.552 100.142 785.045C100.212 785.224 100.08 784.862 100.142 785.045C97.6161 785.941 94.0124 786.152 90.5986 785.806C83.8665 785.127 82.7522 783.288 82.7522 783.288C82.2318 784.57 82.9745 787.853 84.8098 789.946C85.9874 791.287 88.4997 791.927 88.4997 791.927C88.4997 791.927 87.6231 792.285 86.5795 792.329C85.5358 792.373 85.0647 792.2 85.0647 792.2C85.0321 793.752 87.0591 795.722 89.6274 796.699C91.1239 797.273 93.3957 797.118 93.3957 797.118L90.2625 798.43C91.2693 801.574 98.6135 800.845 98.6135 800.845C97.2447 803.094 95.3398 804.873 92.919 805.807C91.6656 806.291 90.3795 806.572 89.0972 806.671C93.3096 808.07 98.1211 808.306 102.498 806.344C114.11 801.149 116.87 788.378 113.328 778.248L113.351 778.264C113.351 778.264 113.801 777.773 114.527 776.127C115.254 774.481 115.459 772.809 115.459 772.809C115.459 772.809 113.982 774.266 113.318 774.757Z" fill="white"/>
<path d="M102.146 790.226C102.153 790.244 102.225 790.41 102.146 790.226V790.226Z" fill="white"/>
</g>
<defs>
<radialGradient id="paint0_radial_2_510" cx="0" cy="0" r="1" gradientUnits="userSpaceOnUse" gradientTransform="translate(1008.16 714.807) rotate(-22.377) scale(106.893 86.8015)">
<stop stop-color="#F9ED32"/>
<stop offset="0.0615" stop-color="#F8D939"/>
<stop offset="0.1874" stop-color="#F5A54D"/>
<stop offset="0.365" stop-color="#F0536C"/>
<stop offset="0.4486" stop-color="#EE2A7B"/>
<stop offset="0.5994" stop-color="#9E2AA7"/>
<stop offset="0.7418" stop-color="#5B2ACD"/>
<stop offset="0.86" stop-color="#2A2AE8"/>
<stop offset="0.9496" stop-color="#0B2AF9"/>
<stop offset="1" stop-color="#002AFF"/>
</radialGradient>
</defs>
</svg>
