<svg width="452" height="123" viewBox="0 0 452 123" fill="none" xmlns="http://www.w3.org/2000/svg">
<g clip-path="url(#clip0_2_295)">
<path fill-rule="evenodd" clip-rule="evenodd" d="M340.851 94.2875L344.208 90.9843V90.6629H341.455L341.97 91.5389L340.238 93.2508L337.362 88.3402H346.577V91.9488L343.808 94.6733L344.421 95.71L347.166 93.0016V93.0177V93.0016L349.919 95.71L350.531 94.6733L347.762 91.9488V88.3402H356.969L354.093 93.2508L352.361 91.5469L352.876 90.6709H350.123V90.9924L353.481 94.2956C352.468 96.0235 351.446 97.7595 350.433 99.4874L347.166 96.3048L343.898 99.4794C342.885 97.7514 341.872 96.0235 340.851 94.2875Z" fill="#465364" fill-opacity="0.8"/>
<path d="M377.09 87.5125L374.223 97.6068H371.796L369.868 90.4138L367.851 97.6068L365.441 97.6229L362.679 87.5125H364.885L366.691 95.3565L368.782 87.5125H371.078L373.046 95.3082L374.868 87.5125H377.09Z" fill="#465364" fill-opacity="0.8"/>
<path d="M378.569 88.3001C378.324 88.075 378.209 87.7937 378.209 87.4562C378.209 87.1186 378.332 86.8373 378.569 86.6123C378.806 86.3792 379.108 86.2667 379.468 86.2667C379.827 86.2667 380.129 86.3792 380.374 86.6043C380.611 86.8293 380.734 87.1106 380.734 87.4481C380.734 87.7857 380.611 88.067 380.374 88.292C380.137 88.5171 379.835 88.6296 379.468 88.6296C379.108 88.6376 378.806 88.5251 378.569 88.3001ZM380.489 89.594V97.6068H378.43V89.594H380.489Z" fill="#465364" fill-opacity="0.8"/>
<path d="M382.474 91.4183C382.801 90.7915 383.25 90.3093 383.822 89.9717C384.394 89.6342 385.023 89.4654 385.717 89.4654C386.248 89.4654 386.755 89.5779 387.229 89.8029C387.711 90.028 388.094 90.3334 388.372 90.7031V86.9016H390.464V97.6068H388.372V96.4173C388.119 96.8111 387.76 97.1326 387.302 97.3737C386.845 97.6148 386.305 97.7354 385.701 97.7354C385.015 97.7354 384.386 97.5585 383.822 97.213C383.25 96.8674 382.801 96.3771 382.474 95.7422C382.147 95.1073 381.984 94.384 381.984 93.5642C381.984 92.7605 382.147 92.0452 382.474 91.4183ZM388.103 92.3346C387.907 91.9809 387.645 91.7157 387.31 91.5228C386.975 91.338 386.616 91.2415 386.24 91.2415C385.856 91.2415 385.505 91.3299 385.178 91.5148C384.851 91.6996 384.59 91.9649 384.394 92.3185C384.189 92.6721 384.091 93.09 384.091 93.5722C384.091 94.0545 384.189 94.4724 384.394 94.8421C384.598 95.2037 384.859 95.477 385.186 95.6699C385.513 95.8628 385.864 95.9592 386.24 95.9592C386.624 95.9592 386.983 95.8628 387.31 95.6779C387.645 95.4931 387.907 95.2198 388.103 94.8662C388.299 94.5126 388.397 94.0946 388.397 93.6044C388.397 93.1061 388.299 92.6882 388.103 92.3346Z" fill="#465364" fill-opacity="0.8"/>
<path d="M399.997 94.2072H394.042C394.091 94.7859 394.295 95.2359 394.663 95.5654C395.022 95.895 395.471 96.0557 396.002 96.0557C396.77 96.0557 397.31 95.7342 397.636 95.0832H399.858C399.622 95.8548 399.172 96.4897 398.502 96.988C397.832 97.4863 397.015 97.7354 396.043 97.7354C395.259 97.7354 394.556 97.5666 393.936 97.221C393.315 96.8755 392.825 96.3932 392.481 95.7664C392.13 95.1395 391.959 94.4162 391.959 93.5964C391.959 92.7686 392.13 92.0372 392.473 91.4104C392.816 90.7835 393.298 90.3013 393.911 89.9637C394.532 89.6262 395.243 89.4574 396.043 89.4574C396.819 89.4574 397.514 89.6181 398.127 89.9476C398.739 90.2772 399.213 90.7433 399.556 91.3461C399.891 91.9488 400.063 92.64 400.063 93.4196C400.055 93.717 400.038 93.9741 399.997 94.2072ZM397.922 92.849C397.914 92.3266 397.718 91.9087 397.35 91.5952C396.975 91.2818 396.525 91.1291 395.986 91.1291C395.48 91.1291 395.047 91.2818 394.704 91.5872C394.352 91.8926 394.14 92.3105 394.066 92.857H397.922V92.849Z" fill="#465364" fill-opacity="0.8"/>
<path d="M406.353 89.8191C406.811 90.0521 407.178 90.3575 407.44 90.7353V89.594H409.515V97.6631C409.515 98.4025 409.359 99.0695 409.057 99.6562C408.755 100.243 408.297 100.701 407.693 101.047C407.088 101.392 406.353 101.561 405.487 101.561C404.327 101.561 403.379 101.296 402.644 100.765C401.901 100.235 401.484 99.5116 401.386 98.5953H403.428C403.535 98.965 403.772 99.2544 404.123 99.4714C404.474 99.6884 404.915 99.7928 405.422 99.7928C406.018 99.7928 406.508 99.616 406.876 99.2624C407.244 98.9088 407.432 98.3784 407.432 97.6631V96.4173C407.17 96.7951 406.802 97.1085 406.337 97.3577C405.871 97.6068 405.34 97.7354 404.744 97.7354C404.058 97.7354 403.428 97.5586 402.865 97.213C402.293 96.8674 401.844 96.3772 401.517 95.7422C401.19 95.1073 401.027 94.384 401.027 93.5643C401.027 92.7525 401.19 92.0372 401.517 91.4104C401.844 90.7835 402.293 90.3013 402.857 89.9637C403.42 89.6262 404.049 89.4574 404.744 89.4574C405.356 89.4654 405.887 89.578 406.353 89.8191ZM407.146 92.3346C406.95 91.981 406.688 91.7158 406.353 91.5229C406.018 91.338 405.659 91.2416 405.283 91.2416C404.899 91.2416 404.548 91.33 404.221 91.5148C403.894 91.6997 403.633 91.9649 403.437 92.3185C403.232 92.6722 403.134 93.0901 403.134 93.5723C403.134 94.0545 403.232 94.4724 403.437 94.8421C403.641 95.2038 403.902 95.477 404.229 95.6699C404.556 95.8628 404.907 95.9592 405.283 95.9592C405.667 95.9592 406.026 95.8628 406.353 95.678C406.688 95.4931 406.95 95.2199 407.146 94.8662C407.342 94.5126 407.44 94.0947 407.44 93.6044C407.44 93.1061 407.342 92.6882 407.146 92.3346Z" fill="#465364" fill-opacity="0.8"/>
<path d="M411.492 91.4183C411.818 90.7915 412.268 90.3093 412.84 89.9717C413.412 89.6342 414.041 89.4654 414.735 89.4654C415.266 89.4654 415.773 89.5779 416.246 89.8029C416.728 90.028 417.112 90.3334 417.39 90.7031V86.9016H419.481V97.6068H417.39V96.4173C417.137 96.8111 416.777 97.1326 416.32 97.3737C415.862 97.6148 415.323 97.7354 414.719 97.7354C414.032 97.7354 413.403 97.5585 412.84 97.213C412.268 96.8674 411.818 96.3771 411.492 95.7422C411.165 95.1073 411.002 94.384 411.002 93.5642C411.002 92.7605 411.165 92.0452 411.492 91.4183ZM417.112 92.3346C416.916 91.9809 416.655 91.7157 416.32 91.5228C415.985 91.338 415.625 91.2415 415.25 91.2415C414.866 91.2415 414.514 91.3299 414.188 91.5148C413.861 91.6996 413.599 91.9649 413.403 92.3185C413.199 92.6721 413.101 93.09 413.101 93.5722C413.101 94.0545 413.199 94.4724 413.403 94.8421C413.608 95.2037 413.869 95.477 414.196 95.6699C414.523 95.8628 414.874 95.9592 415.25 95.9592C415.634 95.9592 415.993 95.8628 416.32 95.6779C416.655 95.4931 416.916 95.2198 417.112 94.8662C417.308 94.5126 417.406 94.0946 417.406 93.6044C417.406 93.1061 417.308 92.6882 417.112 92.3346Z" fill="#465364" fill-opacity="0.8"/>
<path d="M429.015 94.2072H423.06C423.109 94.7859 423.313 95.2359 423.681 95.5654C424.04 95.895 424.489 96.0557 425.02 96.0557C425.788 96.0557 426.327 95.7342 426.654 95.0832H428.876C428.639 95.8548 428.19 96.4897 427.52 96.988C426.85 97.4863 426.033 97.7354 425.061 97.7354C424.277 97.7354 423.574 97.5666 422.953 97.221C422.333 96.8755 421.842 96.3932 421.499 95.7664C421.148 95.1395 420.976 94.4162 420.976 93.5964C420.976 92.7686 421.148 92.0372 421.491 91.4104C421.834 90.7835 422.316 90.3013 422.929 89.9637C423.55 89.6262 424.261 89.4574 425.061 89.4574C425.837 89.4574 426.532 89.6181 427.144 89.9476C427.757 90.2772 428.231 90.7433 428.574 91.3461C428.909 91.9488 429.081 92.64 429.081 93.4196C429.072 93.717 429.048 93.9741 429.015 94.2072ZM426.94 92.849C426.932 92.3266 426.736 91.9087 426.368 91.5952C425.992 91.2818 425.543 91.1291 425.004 91.1291C424.497 91.1291 424.064 91.2818 423.721 91.5872C423.37 91.8926 423.158 92.3105 423.084 92.857H426.94V92.849Z" fill="#465364" fill-opacity="0.8"/>
</g>
<g clip-path="url(#clip1_2_295)">
<path fill-rule="evenodd" clip-rule="evenodd" d="M202.949 92.1648L201.336 93.7511L201.345 93.8333C201.378 94.3593 201.328 94.8771 201.211 95.3867C201.094 95.8881 200.902 96.3813 200.643 96.8333L200.559 96.9895L202.18 97.91L202.272 97.7539C202.731 96.9566 203.024 96.0771 203.158 95.1812C203.283 94.2853 203.249 93.373 203.032 92.4853L202.949 92.1648ZM203.625 87.2496L195.772 94.9758L187.918 87.2496L187.801 87.3976C186.348 89.0496 185.504 91.0716 185.303 93.1511C185.094 95.2306 185.529 97.3758 186.623 99.2745L186.715 99.4306L188.353 98.5018L188.253 98.3457C187.534 97.0881 187.166 95.6991 187.141 94.31C187.125 92.9127 187.45 91.5236 188.136 90.2497L188.194 90.1428C189.28 91.2113 190.366 92.2798 191.452 93.3401L191.444 93.3894C191.319 94.0881 191.369 94.8032 191.578 95.4689C191.787 96.1265 192.163 96.7429 192.672 97.2443L192.756 97.3265L190.107 98.8306L190.258 98.995C190.45 99.2087 190.659 99.4142 190.876 99.6032C192.271 100.82 194.026 101.428 195.78 101.428C197.535 101.428 199.289 100.811 200.676 99.595C200.893 99.406 201.094 99.2087 201.294 98.9868L201.445 98.8224L198.813 97.3265L198.897 97.2443C199.406 96.7429 199.774 96.1347 199.991 95.4689C200.2 94.8032 200.258 94.0963 200.125 93.3894L200.108 93.3483L203.333 90.1757L203.375 90.1346L203.91 91.2278L203.901 91.236L203.935 91.3428C204.344 92.4935 204.494 93.71 204.386 94.9018C204.277 96.1018 203.918 97.2689 203.308 98.3375L203.216 98.4936L204.854 99.4306L204.946 99.2745C206.04 97.3758 206.466 95.2306 206.266 93.1511C206.057 91.0716 205.213 89.0579 203.767 87.3976L203.625 87.2496ZM188.378 95.173C188.512 96.0771 188.804 96.9566 189.263 97.7621L189.355 97.9183L190.993 96.9895L190.909 96.8333C190.65 96.3813 190.458 95.8881 190.341 95.3867C190.224 94.8771 190.183 94.3593 190.208 93.8333L190.216 93.7511L188.578 92.1483L188.503 92.4606C188.286 93.3566 188.244 94.2771 188.378 95.173ZM207.41 92.9949C207.694 95.7237 207.001 98.5429 205.271 100.902L205.221 100.968L202.472 99.406L202.372 99.521C202.013 99.9484 201.629 100.327 201.219 100.664C199.649 101.946 197.71 102.587 195.772 102.587C193.834 102.587 191.895 101.954 190.325 100.672C189.907 100.335 189.522 99.9567 189.163 99.5292L189.063 99.4142L186.331 100.968L186.281 100.902C184.543 98.5347 183.85 95.7155 184.134 92.9949C184.418 90.2743 185.679 87.6524 187.86 85.6797L187.927 85.6222L195.78 93.3483L203.625 85.6222L203.684 85.6797C205.865 87.6441 207.126 90.2743 207.41 92.9949Z" fill="#465364" fill-opacity="0.8"/>
<path d="M214.788 97.6634C214.228 97.425 213.785 97.0798 213.468 96.636C213.15 96.1922 212.983 95.6743 212.983 95.0825H214.821C214.863 95.5264 215.038 95.888 215.356 96.1757C215.673 96.4634 216.116 96.6031 216.684 96.6031C217.277 96.6031 217.737 96.4634 218.071 96.1839C218.405 95.9045 218.564 95.5428 218.564 95.099C218.564 94.7538 218.464 94.4743 218.255 94.2524C218.046 94.0387 217.795 93.8661 217.486 93.751C217.177 93.636 216.759 93.5044 216.216 93.3647C215.531 93.1839 214.98 93.0031 214.554 92.8222C214.128 92.6414 213.768 92.3537 213.468 91.9757C213.167 91.5893 213.016 91.0797 213.016 90.4386C213.016 89.8469 213.167 89.329 213.468 88.8852C213.768 88.4414 214.186 88.1044 214.729 87.866C215.272 87.6276 215.899 87.5126 216.609 87.5126C217.62 87.5126 218.455 87.7592 219.099 88.2605C219.742 88.7619 220.101 89.4441 220.176 90.3071H218.28C218.246 89.929 218.071 89.6085 217.737 89.3455C217.403 89.0825 216.968 88.9427 216.425 88.9427C215.932 88.9427 215.531 89.066 215.222 89.3126C214.913 89.5592 214.754 89.9126 214.754 90.3811C214.754 90.6934 214.854 90.9565 215.047 91.1619C215.239 91.3674 215.489 91.5236 215.79 91.6387C216.091 91.7537 216.5 91.8852 217.027 92.025C217.72 92.214 218.28 92.4031 218.714 92.5839C219.149 92.7729 219.525 93.0606 219.826 93.4469C220.135 93.8332 220.285 94.3592 220.285 95.0086C220.285 95.5346 220.143 96.0278 219.859 96.488C219.575 96.9483 219.157 97.3264 218.614 97.6059C218.071 97.8853 217.419 98.0251 216.684 98.0251C215.982 98.0251 215.347 97.9018 214.788 97.6634Z" fill="#465364" fill-opacity="0.8"/>
<path d="M225.223 90.0195C225.724 89.7647 226.292 89.6332 226.919 89.6332C227.637 89.6332 228.297 89.8058 228.899 90.1592C229.492 90.5126 229.96 90.9976 230.303 91.6305C230.645 92.2634 230.812 92.9867 230.812 93.8086C230.812 94.6305 230.645 95.362 230.303 96.0031C229.96 96.6525 229.492 97.1538 228.899 97.5155C228.306 97.8771 227.646 98.058 226.919 98.058C226.284 98.058 225.724 97.9347 225.231 97.6799C224.738 97.4251 224.337 97.1127 224.028 96.7429V101.806H222.315V89.7647H224.028V90.9647C224.329 90.5866 224.722 90.2743 225.223 90.0195ZM228.723 92.3455C228.49 91.9346 228.18 91.6222 227.788 91.4168C227.403 91.2031 226.986 91.0962 226.551 91.0962C226.117 91.0962 225.707 91.2031 225.323 91.425C224.939 91.6469 224.63 91.9592 224.387 92.3702C224.153 92.7812 224.036 93.2743 224.036 93.8332C224.036 94.3922 224.153 94.8853 224.387 95.3045C224.621 95.7237 224.93 96.0442 225.323 96.2579C225.707 96.4716 226.117 96.5867 226.551 96.5867C226.994 96.5867 227.403 96.4799 227.788 96.2579C228.172 96.036 228.481 95.7155 228.723 95.2881C228.957 94.8607 229.074 94.3675 229.074 93.8086C229.074 93.2497 228.957 92.7565 228.723 92.3455Z" fill="#465364" fill-opacity="0.8"/>
<path d="M232.608 88.3756C232.4 88.1701 232.291 87.9153 232.291 87.603C232.291 87.2907 232.4 87.0441 232.608 86.8304C232.817 86.6167 233.076 86.5181 233.394 86.5181C233.695 86.5181 233.954 86.6249 234.162 86.8304C234.371 87.0359 234.48 87.2907 234.48 87.603C234.48 87.9153 234.371 88.1701 234.162 88.3756C233.954 88.5811 233.695 88.688 233.394 88.688C233.085 88.688 232.817 88.5811 232.608 88.3756ZM234.238 89.7647V97.9182H232.525V89.7647H234.238Z" fill="#465364" fill-opacity="0.8"/>
<path d="M236.435 91.6304C236.778 90.9976 237.254 90.5044 237.847 90.1592C238.44 89.814 239.109 89.6331 239.835 89.6331C240.378 89.6331 240.913 89.7482 241.44 89.9784C241.966 90.2085 242.384 90.5208 242.693 90.8989V86.9701H244.422V97.9182H242.693V96.6935C242.409 97.0881 242.024 97.4168 241.523 97.6716C241.03 97.9264 240.454 98.0579 239.819 98.0579C239.1 98.0579 238.44 97.8771 237.839 97.5155C237.245 97.1538 236.769 96.6524 236.427 96.0031C236.084 95.3538 235.909 94.6223 235.909 93.8085C235.909 92.9948 236.092 92.2633 236.435 91.6304ZM242.35 92.3702C242.116 91.9592 241.807 91.6387 241.423 91.425C241.039 91.2113 240.629 91.0962 240.186 91.0962C239.744 91.0962 239.334 91.203 238.95 91.4167C238.565 91.6304 238.265 91.9428 238.022 92.3455C237.788 92.7565 237.672 93.2414 237.672 93.8003C237.672 94.3592 237.788 94.8524 238.022 95.2798C238.256 95.7072 238.565 96.0278 238.958 96.2497C239.351 96.4716 239.752 96.5785 240.186 96.5785C240.629 96.5785 241.039 96.4716 241.423 96.2497C241.807 96.036 242.116 95.7154 242.35 95.2962C242.584 94.8771 242.701 94.3839 242.701 93.825C242.701 93.2743 242.584 92.7811 242.35 92.3702Z" fill="#465364" fill-opacity="0.8"/>
<path d="M254.222 94.4743H247.889C247.94 95.1237 248.182 95.6497 248.625 96.0442C249.068 96.4388 249.611 96.636 250.246 96.636C251.165 96.636 251.816 96.2579 252.201 95.4935H254.047C253.796 96.2415 253.345 96.8579 252.685 97.3347C252.025 97.8114 251.215 98.0497 250.246 98.0497C249.452 98.0497 248.742 97.8771 248.115 97.5237C247.488 97.1703 246.996 96.6771 246.645 96.0442C246.285 95.4113 246.11 94.6716 246.11 93.8332C246.11 92.9949 246.285 92.2551 246.628 91.6222C246.97 90.9894 247.463 90.4962 248.09 90.151C248.717 89.8058 249.435 89.6332 250.246 89.6332C251.031 89.6332 251.724 89.7976 252.334 90.1346C252.944 90.4715 253.42 90.94 253.763 91.5483C254.105 92.1565 254.273 92.8551 254.273 93.6442C254.281 93.9483 254.264 94.2278 254.222 94.4743ZM252.493 93.1099C252.485 92.4853 252.259 91.9921 251.816 91.614C251.373 91.2359 250.83 91.0551 250.179 91.0551C249.586 91.0551 249.084 91.2442 248.658 91.614C248.24 91.9839 247.99 92.4853 247.906 93.1182H252.493V93.1099Z" fill="#465364" fill-opacity="0.8"/>
<path d="M258.684 89.9784C259.102 89.7482 259.595 89.6332 260.163 89.6332V91.3757H259.728C259.06 91.3757 258.55 91.5401 258.199 91.877C257.857 92.214 257.681 92.7976 257.681 93.6195V97.91H255.969V89.7647H257.681V90.9483C257.932 90.5373 258.266 90.2167 258.684 89.9784Z" fill="#465364" fill-opacity="0.8"/>
<path d="M262.995 97.7045C262.477 97.4744 262.068 97.1538 261.767 96.7593C261.466 96.3566 261.307 95.9127 261.282 95.4196H263.054C263.087 95.7648 263.254 96.0525 263.555 96.2826C263.864 96.5127 264.24 96.6278 264.708 96.6278C265.192 96.6278 265.56 96.5374 265.827 96.3566C266.095 96.1757 266.228 95.9374 266.228 95.6579C266.228 95.3538 266.078 95.1237 265.786 94.9757C265.493 94.8278 265.017 94.6634 264.382 94.4908C263.764 94.3264 263.254 94.162 262.861 94.0058C262.469 93.8497 262.135 93.6031 261.842 93.2825C261.558 92.9538 261.416 92.5264 261.416 91.9921C261.416 91.5565 261.55 91.162 261.809 90.8003C262.068 90.4387 262.444 90.1592 262.928 89.9455C263.413 89.7318 263.973 89.6332 264.608 89.6332C265.552 89.6332 266.312 89.8715 266.888 90.3318C267.465 90.8003 267.774 91.4414 267.816 92.2469H266.103C266.07 91.8853 265.919 91.5894 265.652 91.3757C265.385 91.162 265.017 91.0469 264.557 91.0469C264.106 91.0469 263.764 91.1291 263.521 91.3017C263.279 91.4743 263.162 91.688 263.162 91.9675C263.162 92.1812 263.246 92.3702 263.404 92.5182C263.563 92.6661 263.764 92.7812 263.989 92.8634C264.223 92.9456 264.557 93.0524 265.009 93.1839C265.61 93.3401 266.103 93.5045 266.487 93.6606C266.872 93.825 267.206 94.0634 267.49 94.3757C267.774 94.688 267.916 95.1072 267.924 95.6333C267.924 96.0935 267.791 96.5127 267.532 96.8744C267.273 97.236 266.905 97.5237 266.429 97.7292C265.953 97.9347 265.393 98.0415 264.75 98.0415C264.098 98.0497 263.513 97.9347 262.995 97.7045Z" fill="#465364" fill-opacity="0.8"/>
</g>
<g clip-path="url(#clip2_2_295)">
<path fill-rule="evenodd" clip-rule="evenodd" d="M50.4266 86.5094H43.7983V102.061C43.7983 102.665 43.3012 103.146 42.6964 103.146C42.0832 103.146 41.5944 102.656 41.5944 102.061V86.5094H34.9661V99.877C34.9661 100.48 35.4467 100.977 36.0681 100.977C36.6812 100.977 37.17 100.488 37.17 99.8933V88.6939H39.3822V99.8933C39.3822 101.695 37.8991 103.154 36.0681 103.154C34.237 103.154 32.7539 101.695 32.7539 99.8933V84.3331C39.3822 84.3331 46.0105 84.3331 52.6388 84.3331V99.8852C52.6388 101.687 51.1557 103.146 49.3247 103.146C47.4936 103.146 46.0105 101.687 46.0105 99.8852V88.6776H48.2227V99.877C48.2227 100.48 48.7198 100.961 49.3247 100.961C49.9378 100.961 50.4266 100.472 50.4266 99.877V86.5094Z" fill="#465364" fill-opacity="0.8"/>
<path d="M60.8248 88.1967V95.5488C60.8248 96.421 61.0568 97.0812 61.5207 97.5214C61.9847 97.9615 62.6393 98.1816 63.4678 98.1816C64.3129 98.1816 64.9675 97.9615 65.4314 97.5214C65.8954 97.0812 66.1274 96.421 66.1274 95.5488V88.1967H68.0496V95.5162C68.0496 96.4536 67.8425 97.2524 67.4282 97.9044C67.0139 98.5565 66.4588 99.0456 65.7546 99.3635C65.0586 99.6814 64.2881 99.8444 63.4429 99.8444C62.5978 99.8444 61.8356 99.6814 61.1396 99.3635C60.4519 99.0456 59.8968 98.5565 59.4991 97.9044C59.0931 97.2524 58.8943 96.4536 58.8943 95.5162V88.1967H60.8248Z" fill="#465364" fill-opacity="0.8"/>
<path d="M72.4823 87.455V99.7303H70.5601V87.455H72.4823Z" fill="#465364" fill-opacity="0.8"/>
<path d="M74.9513 92.6797C75.3408 91.9706 75.871 91.4245 76.5338 91.0251C77.205 90.6339 77.9424 90.4382 78.7543 90.4382C79.4834 90.4382 80.1214 90.5768 80.6682 90.8621C81.2151 91.1474 81.6459 91.4979 81.9773 91.9136V90.5849H83.9161V99.7303H81.9773V98.3691C81.6542 98.8011 81.2068 99.1598 80.6434 99.445C80.08 99.7303 79.442 99.877 78.7212 99.877C77.9258 99.877 77.1884 99.6733 76.5256 99.2739C75.8627 98.8663 75.3325 98.3039 74.9513 97.5785C74.5619 96.853 74.3714 96.0298 74.3714 95.1169C74.3714 94.204 74.5619 93.3889 74.9513 92.6797ZM81.5796 93.5111C81.3145 93.0465 80.9665 92.696 80.544 92.4515C80.1131 92.207 79.6574 92.0847 79.1603 92.0847C78.6632 92.0847 78.2075 92.207 77.7767 92.4434C77.3458 92.6797 77.0061 93.0302 76.741 93.4867C76.4758 93.9431 76.3433 94.4893 76.3433 95.125C76.3433 95.7608 76.4758 96.3069 76.741 96.7878C77.0061 97.2606 77.3541 97.6274 77.7849 97.8719C78.2158 98.1246 78.6798 98.2468 79.1603 98.2468C79.6574 98.2468 80.1131 98.1246 80.544 97.8801C80.9748 97.6355 81.3145 97.2769 81.5796 96.8123C81.8448 96.3395 81.9773 95.7934 81.9773 95.1576C81.9773 94.5219 81.8448 93.9757 81.5796 93.5111Z" fill="#465364" fill-opacity="0.8"/>
<path d="M89.7076 90.8621C90.2793 90.5768 90.909 90.4382 91.605 90.4382C92.4252 90.4382 93.1709 90.6338 93.8337 91.0169C94.4966 91.4082 95.0185 91.9543 95.3997 92.6716C95.7808 93.3889 95.9714 94.204 95.9714 95.1169C95.9714 96.0298 95.7808 96.853 95.3997 97.5784C95.0185 98.3039 94.4883 98.8663 93.8254 99.2738C93.1543 99.6814 92.4169 99.877 91.605 99.877C90.8841 99.877 90.2462 99.7385 89.691 99.4613C89.1359 99.1842 88.6968 98.8337 88.3654 98.4017V99.7303H86.4432V87.455H88.3654V91.9543C88.6968 91.506 89.1442 91.1473 89.7076 90.8621ZM93.6183 93.4867C93.3532 93.0302 93.0052 92.6797 92.5743 92.4433C92.1435 92.207 91.6795 92.0847 91.1824 92.0847C90.7018 92.0847 90.2379 92.207 89.807 92.4515C89.3762 92.696 89.0282 93.0465 88.7631 93.5111C88.4979 93.9757 88.3654 94.5218 88.3654 95.1576C88.3654 95.7852 88.4979 96.3395 88.7631 96.8123C89.0282 97.285 89.3762 97.6355 89.807 97.88C90.2379 98.1246 90.7018 98.2468 91.1824 98.2468C91.6795 98.2468 92.1435 98.1246 92.5743 97.8719C93.0052 97.6192 93.3532 97.2606 93.6183 96.7878C93.8834 96.315 94.016 95.7608 94.016 95.125C94.016 94.4892 93.8834 93.9431 93.6183 93.4867Z" fill="#465364" fill-opacity="0.8"/>
<path d="M99.2855 99.4939C98.7055 99.2331 98.2498 98.8826 97.9101 98.4343C97.5704 97.986 97.3964 97.4888 97.3716 96.9345H99.3601C99.3932 97.3258 99.5838 97.6437 99.9235 97.9045C100.263 98.1653 100.694 98.2958 101.216 98.2958C101.755 98.2958 102.177 98.1898 102.475 97.986C102.774 97.7822 102.923 97.5214 102.923 97.1954C102.923 96.853 102.757 96.6004 102.426 96.4292C102.094 96.2662 101.564 96.0787 100.851 95.8831C100.155 95.6956 99.5838 95.5081 99.1447 95.337C98.7055 95.1576 98.3244 94.8887 98.0096 94.5219C97.6864 94.1551 97.529 93.6742 97.529 93.0791C97.529 92.5901 97.6781 92.1499 97.9681 91.7424C98.2581 91.3348 98.6807 91.017 99.2275 90.7887C99.7743 90.5605 100.404 90.4382 101.108 90.4382C102.169 90.4382 103.014 90.6991 103.66 91.2289C104.306 91.7587 104.654 92.4678 104.696 93.3807H102.774C102.741 92.9732 102.575 92.6471 102.268 92.4026C101.962 92.1581 101.556 92.0358 101.034 92.0358C100.528 92.0358 100.139 92.1336 99.8738 92.3211C99.6004 92.5086 99.4678 92.7613 99.4678 93.071C99.4678 93.3155 99.5589 93.5193 99.7412 93.6823C99.9235 93.8453 100.139 93.9757 100.396 94.0736C100.653 94.1714 101.034 94.2855 101.539 94.4322C102.21 94.6115 102.765 94.7908 103.204 94.9702C103.635 95.1495 104.008 95.4185 104.323 95.7771C104.638 96.1276 104.804 96.6004 104.812 97.1872C104.812 97.7089 104.663 98.1735 104.373 98.581C104.083 98.9886 103.668 99.3146 103.13 99.5429C102.591 99.7711 101.97 99.8933 101.249 99.8933C100.52 99.877 99.8655 99.7548 99.2855 99.4939Z" fill="#465364" fill-opacity="0.8"/>
</g>
<g clip-path="url(#clip3_2_295)">
<path fill-rule="evenodd" clip-rule="evenodd" d="M350.784 20.962C350.784 22.9502 349.177 24.5577 347.189 24.5577V27.1805C350.624 27.1805 353.407 24.397 353.407 20.962H350.784ZM357.341 30.2601C356.834 30.9708 356.267 31.6222 355.641 32.2229C353.289 33.9996 350.361 35.0487 347.189 35.0487V37.6546L347.459 37.6715C351.173 37.6123 354.591 36.3432 357.333 34.2365C360.082 36.3432 363.5 37.6123 367.206 37.6715L367.494 37.663V35.0487C364.321 35.0487 361.394 33.9996 359.042 32.2314C358.416 31.6307 357.849 30.9708 357.341 30.2601ZM357.189 26.5713C357.24 26.4783 357.29 26.3852 357.341 26.2921C357.392 26.3852 357.443 26.4783 357.493 26.5713C359.456 30.0655 363.204 32.426 367.494 32.426V29.8032C362.612 29.8032 358.653 25.8437 358.653 20.962H356.03C356.03 22.9502 355.37 24.7862 354.27 26.2583C352.654 28.4157 350.082 29.8032 347.189 29.8032V32.426C350.42 32.426 353.348 31.0892 355.429 28.9318C356.114 28.2296 356.707 27.4343 357.189 26.5713ZM361.275 20.962C361.275 24.397 364.059 27.1805 367.494 27.1805V24.5577C365.506 24.5577 363.898 22.9502 363.898 20.962H361.275Z" fill="#465364" fill-opacity="0.8"/>
<path d="M380.074 35.125L377.638 30.8947H376.31V35.125H374.575V24.5409H378.23C379.042 24.5409 379.728 24.6847 380.294 24.9639C380.861 25.2431 381.276 25.6323 381.555 26.1061C381.834 26.5799 381.978 27.1129 381.978 27.7051C381.978 28.3989 381.775 29.0249 381.377 29.5833C380.98 30.1502 380.362 30.5309 379.525 30.734L382.147 35.1165H380.074V35.125ZM376.318 29.5072H378.239C378.89 29.5072 379.381 29.3464 379.711 29.0165C380.041 28.695 380.201 28.255 380.201 27.7051C380.201 27.1552 380.041 26.7322 379.711 26.4191C379.389 26.1061 378.89 25.9538 378.23 25.9538H376.31V29.5072H376.318Z" fill="#465364" fill-opacity="0.8"/>
<path d="M384.296 25.3023C384.085 25.0908 383.975 24.8285 383.975 24.507C383.975 24.1855 384.085 23.9317 384.296 23.7118C384.508 23.4918 384.77 23.3903 385.092 23.3903C385.396 23.3903 385.658 23.5002 385.87 23.7118C386.081 23.9233 386.191 24.1855 386.191 24.507C386.191 24.8285 386.081 25.0824 385.87 25.3023C385.658 25.5223 385.396 25.6238 385.092 25.6238C384.77 25.6238 384.508 25.5138 384.296 25.3023ZM385.938 26.7322V35.125H384.203V26.7322H385.938Z" fill="#465364" fill-opacity="0.8"/>
<path d="M394.229 27.0112C394.753 27.282 395.16 27.6881 395.456 28.2296C395.752 28.771 395.896 29.414 395.896 30.1755V35.1248H394.178V30.4377C394.178 29.6848 393.992 29.1094 393.611 28.7118C393.239 28.3142 392.723 28.1111 392.071 28.1111C391.42 28.1111 390.904 28.3142 390.523 28.7118C390.142 29.1094 389.948 29.6848 389.948 30.4377V35.1248H388.222V26.732H389.956V27.6881C390.244 27.3412 390.608 27.0705 391.048 26.8843C391.488 26.6982 391.961 26.5967 392.461 26.5967C393.112 26.5967 393.704 26.732 394.229 27.0112Z" fill="#465364" fill-opacity="0.8"/>
<path d="M401.623 28.1535H400.067V35.1249H398.315V28.1535H397.325V26.7321H398.315V26.1399C398.315 25.1754 398.569 24.4732 399.085 24.0332C399.601 23.5933 400.405 23.3733 401.496 23.3733V24.82C400.972 24.82 400.6 24.9216 400.388 25.1162C400.177 25.3107 400.067 25.6576 400.067 26.1399V26.7321H401.623V28.1535Z" fill="#465364" fill-opacity="0.8"/>
<path d="M403.112 28.6526C403.459 28.0011 403.942 27.4935 404.542 27.1382C405.143 26.7828 405.811 26.5967 406.547 26.5967C407.207 26.5967 407.783 26.7236 408.273 26.9859C408.764 27.2481 409.162 27.5696 409.458 27.9504V26.732H411.209V35.1248H409.458V33.8727C409.162 34.2703 408.764 34.6003 408.256 34.8626C407.749 35.1248 407.173 35.2602 406.522 35.2602C405.803 35.2602 405.143 35.0741 404.542 34.7018C403.942 34.3296 403.468 33.8135 403.121 33.1451C402.774 32.4767 402.596 31.7237 402.596 30.8861C402.596 30.0486 402.757 29.304 403.112 28.6526ZM409.094 29.414C408.857 28.991 408.544 28.661 408.155 28.4411C407.766 28.2211 407.351 28.1026 406.903 28.1026C406.454 28.1026 406.04 28.2126 405.651 28.4326C405.27 28.6526 404.965 28.9656 404.72 29.3886C404.483 29.8117 404.365 30.3108 404.365 30.8861C404.365 31.4615 404.483 31.9691 404.72 32.409C404.957 32.849 405.27 33.1789 405.667 33.4074C406.065 33.6358 406.471 33.7458 406.911 33.7458C407.36 33.7458 407.774 33.6358 408.163 33.4074C408.552 33.1874 408.866 32.8574 409.102 32.426C409.339 31.9945 409.458 31.4868 409.458 30.9115C409.449 30.3447 409.331 29.837 409.094 29.414Z" fill="#465364" fill-opacity="0.8"/>
<path d="M415.219 23.8556V35.125H413.485V23.8556H415.219Z" fill="#465364" fill-opacity="0.8"/>
<path d="M419.247 23.8556V35.125H417.512V23.8556H419.247Z" fill="#465364" fill-opacity="0.8"/>
</g>
<g clip-path="url(#clip4_2_295)">
<path d="M210.261 28.7516C211.39 28.7516 212.295 29.657 212.295 30.7858C212.295 31.9146 211.39 32.82 210.261 32.82C209.132 32.82 208.227 31.9146 208.227 30.7858C208.227 30.4095 208.333 30.045 208.509 29.7393L206.016 25.6709C205.969 25.6709 205.922 25.6709 205.875 25.6709C205.793 25.6709 205.722 25.6709 205.64 25.6591L201.407 31.8793C201.56 32.1615 201.642 32.4907 201.642 32.8317C201.642 33.9605 200.737 34.8659 199.608 34.8659C198.479 34.8659 197.574 33.9605 197.574 32.8317C197.574 32.5495 197.633 32.2908 197.727 32.0439L194.822 28.5399C194.693 28.5752 194.552 28.5869 194.411 28.5869C194.352 28.5869 194.281 28.5869 194.223 28.5752L187.885 38.3582C188.049 38.6521 188.144 38.9931 188.144 39.3576C188.144 40.4865 187.226 41.3918 186.109 41.3918C184.992 41.3918 184.075 40.4865 184.075 39.3576C184.075 38.2288 184.992 37.3234 186.109 37.3234C186.168 37.3234 186.239 37.3234 186.297 37.3352L192.635 27.5522C192.471 27.2582 192.377 26.9172 192.377 26.5527C192.377 25.4239 193.282 24.5185 194.411 24.5185C195.54 24.5185 196.445 25.4239 196.445 26.5527C196.445 26.8349 196.386 27.0936 196.292 27.3405L199.196 30.8563C199.338 30.8328 199.479 30.8093 199.62 30.8093C199.702 30.8093 199.773 30.8093 199.855 30.821L204.088 24.6008C203.935 24.3186 203.853 23.9894 203.853 23.6484C203.853 22.5196 204.758 21.6142 205.887 21.6142C207.016 21.6142 207.921 22.5196 207.921 23.6484C207.921 24.0247 207.815 24.3892 207.639 24.6949L210.144 28.7633C210.167 28.7516 210.214 28.7516 210.261 28.7516ZM206.169 33.596C206.381 33.1139 206.933 32.9023 207.416 33.1139C207.898 33.3256 208.109 33.8782 207.898 34.3603C206.957 36.4768 205.428 38.2641 203.5 39.5105C201.642 40.7216 199.42 41.4271 197.033 41.4271C195.775 41.4271 194.564 41.2272 193.411 40.8627C192.224 40.4865 191.13 39.922 190.142 39.2165C189.719 38.9108 189.613 38.3229 189.919 37.8996C190.225 37.4763 190.813 37.3705 191.236 37.6762C192.071 38.2759 193 38.7462 193.987 39.0637C194.94 39.3694 195.963 39.534 197.033 39.534C199.044 39.534 200.913 38.9461 202.477 37.9231C204.088 36.8766 205.381 35.3715 206.169 33.596ZM187.52 32.5966C187.673 33.0904 187.403 33.6195 186.909 33.7842C186.415 33.937 185.886 33.6666 185.721 33.1727C185.533 32.5966 185.392 31.9969 185.298 31.3972C185.204 30.7858 185.157 30.1743 185.157 29.5629C185.157 26.2823 186.486 23.3192 188.637 21.1674C190.789 19.0156 193.752 17.6869 197.033 17.6869C198.279 17.6869 199.49 17.8868 200.631 18.2395C201.795 18.604 202.889 19.1567 203.888 19.8622C204.311 20.1562 204.417 20.7441 204.111 21.1791C203.818 21.6024 203.23 21.7083 202.795 21.4025C201.971 20.8264 201.054 20.356 200.055 20.0503C199.102 19.7446 198.091 19.58 197.033 19.58C194.281 19.58 191.777 20.697 189.978 22.5078C188.167 24.3186 187.05 26.8114 187.05 29.5629C187.05 30.1038 187.085 30.6211 187.168 31.1032C187.25 31.6206 187.367 32.1145 187.52 32.5966Z" fill="#465364" fill-opacity="0.8"/>
<path d="M217.739 25.5297C218.186 24.7654 218.798 24.1775 219.562 23.7424C220.326 23.3191 221.173 23.0957 222.078 23.0957C223.125 23.0957 224.054 23.3544 224.865 23.86C225.676 24.3774 226.264 25.0946 226.641 26.0353H224.712C224.454 25.5179 224.101 25.1299 223.654 24.883C223.207 24.6243 222.678 24.5067 222.09 24.5067C221.443 24.5067 220.867 24.6478 220.35 24.9418C219.844 25.2357 219.444 25.6473 219.162 26.1999C218.88 26.7408 218.727 27.3758 218.727 28.1048C218.727 28.8338 218.868 29.4688 219.162 30.0096C219.456 30.5505 219.844 30.9738 220.35 31.2678C220.855 31.5618 221.432 31.7146 222.09 31.7146C222.678 31.7146 223.207 31.5853 223.654 31.3383C224.101 31.0914 224.454 30.7034 224.712 30.186H226.641C226.276 31.1267 225.688 31.8557 224.865 32.3613C224.054 32.8669 223.125 33.1256 222.078 33.1256C221.161 33.1256 220.315 32.914 219.55 32.4789C218.786 32.0556 218.186 31.4559 217.739 30.6916C217.293 29.9273 217.069 29.069 217.069 28.1048C217.069 27.1406 217.293 26.294 217.739 25.5297Z" fill="#465364" fill-opacity="0.8"/>
<path d="M231.062 25.4591C231.45 25.2357 231.92 25.1299 232.449 25.1299V26.7996H232.038C231.403 26.7996 230.932 26.9642 230.603 27.2817C230.274 27.5991 230.121 28.1518 230.121 28.9514V33.0433H228.51V25.2592H230.121V26.388C230.356 25.9882 230.674 25.6825 231.062 25.4591Z" fill="#465364" fill-opacity="0.8"/>
<path d="M240.998 29.751H235.06C235.107 30.3742 235.342 30.8681 235.753 31.2443C236.165 31.6206 236.671 31.8087 237.282 31.8087C238.152 31.8087 238.764 31.4442 239.116 30.727H240.857C240.621 31.4442 240.198 32.0322 239.575 32.479C238.963 32.9375 238.199 33.161 237.282 33.161C236.541 33.161 235.871 32.9963 235.283 32.6553C234.695 32.3261 234.237 31.8558 233.896 31.2443C233.555 30.6329 233.39 29.9392 233.39 29.1396C233.39 28.34 233.555 27.6345 233.872 27.0348C234.201 26.4234 234.648 25.9648 235.236 25.6356C235.824 25.3063 236.494 25.1417 237.258 25.1417C237.987 25.1417 238.646 25.3063 239.222 25.6238C239.798 25.9413 240.245 26.3881 240.563 26.976C240.88 27.5522 241.045 28.2224 241.045 28.975C241.056 29.2454 241.033 29.5041 240.998 29.751ZM239.375 28.4458C239.363 27.8579 239.152 27.3758 238.74 27.0231C238.328 26.6703 237.811 26.4822 237.2 26.4822C236.647 26.4822 236.165 26.6586 235.777 27.0113C235.377 27.3641 235.142 27.8462 235.071 28.4458H239.375Z" fill="#465364" fill-opacity="0.8"/>
<path d="M244.02 32.6553C243.432 32.326 242.961 31.8557 242.62 31.2443C242.279 30.6328 242.115 29.9391 242.115 29.1395C242.115 28.3517 242.291 27.6462 242.632 27.0347C242.985 26.4233 243.455 25.953 244.055 25.6237C244.654 25.2945 245.325 25.1299 246.077 25.1299C246.83 25.1299 247.488 25.2945 248.1 25.6237C248.699 25.953 249.181 26.4233 249.522 27.0347C249.863 27.6462 250.04 28.3517 250.04 29.1395C250.04 29.9273 249.863 30.6328 249.499 31.2443C249.146 31.8557 248.652 32.326 248.041 32.667C247.429 32.9963 246.747 33.1726 246.007 33.1726C245.278 33.1609 244.607 32.9963 244.02 32.6553ZM247.171 31.4677C247.535 31.2678 247.829 30.9738 248.053 30.574C248.276 30.1742 248.394 29.7039 248.394 29.1395C248.394 28.5751 248.288 28.093 248.064 27.705C247.853 27.3169 247.571 27.023 247.206 26.8231C246.853 26.6232 246.465 26.5291 246.054 26.5291C245.642 26.5291 245.254 26.6232 244.901 26.8231C244.549 27.023 244.266 27.3169 244.067 27.705C243.855 28.093 243.761 28.5751 243.761 29.1395C243.761 29.9743 243.972 30.6211 244.408 31.0796C244.831 31.5382 245.372 31.7616 246.018 31.7616C246.418 31.7616 246.806 31.6676 247.171 31.4677Z" fill="#465364" fill-opacity="0.8"/>
<path d="M257.201 25.5179C257.683 25.7766 258.059 26.1529 258.341 26.6467C258.612 27.1406 258.753 27.752 258.753 28.4575V33.0433H257.154V28.6927C257.154 27.9989 256.977 27.458 256.636 27.0935C256.284 26.7173 255.813 26.5409 255.214 26.5409C254.614 26.5409 254.132 26.729 253.779 27.0935C253.426 27.4698 253.25 27.9989 253.25 28.6927V33.0433H251.639V25.2592H253.25V26.1529C253.509 25.8354 253.85 25.5885 254.261 25.4003C254.673 25.224 255.108 25.1299 255.566 25.1299C256.166 25.1299 256.719 25.2592 257.201 25.5179Z" fill="#465364" fill-opacity="0.8"/>
<path d="M267.866 29.751H261.928C261.975 30.3742 262.21 30.8681 262.621 31.2443C263.033 31.6206 263.538 31.8087 264.15 31.8087C265.02 31.8087 265.631 31.4442 265.984 30.727H267.724C267.489 31.4442 267.066 32.0322 266.443 32.479C265.831 32.9375 265.067 33.161 264.15 33.161C263.409 33.161 262.739 32.9963 262.151 32.6553C261.563 32.3261 261.105 31.8558 260.764 31.2443C260.423 30.6329 260.258 29.9392 260.258 29.1396C260.258 28.34 260.423 27.6345 260.74 27.0348C261.069 26.4234 261.516 25.9648 262.104 25.6356C262.692 25.3063 263.362 25.1417 264.126 25.1417C264.855 25.1417 265.514 25.3063 266.09 25.6238C266.666 25.9413 267.113 26.3881 267.431 26.976C267.748 27.5522 267.913 28.2224 267.913 28.975C267.924 29.2454 267.901 29.5041 267.866 29.751ZM266.243 28.4458C266.231 27.8579 266.02 27.3758 265.608 27.0231C265.196 26.6703 264.679 26.4822 264.068 26.4822C263.515 26.4822 263.033 26.6586 262.645 27.0113C262.245 27.3641 262.01 27.8462 261.939 28.4458H266.243Z" fill="#465364" fill-opacity="0.8"/>
</g>
<g clip-path="url(#clip5_2_295)">
<path fill-rule="evenodd" clip-rule="evenodd" d="M37.6757 35.6344L35.964 37.3461C37.3105 38.1335 38.8739 38.5785 40.5513 38.5785C42.2173 38.5785 43.7921 38.1335 45.1386 37.3461L43.4269 35.6344C42.5597 36.0452 41.5783 36.2735 40.5513 36.2735C39.5243 36.262 38.5543 36.0338 37.6757 35.6344ZM31.6962 18.9969L36.6373 23.938C34.3436 25.5584 33.2824 28.434 33.9671 31.1498C34.0698 31.5721 34.2181 31.9714 34.4007 32.3594L32.689 34.0711C32.4836 33.7174 32.301 33.3522 32.1413 32.9756C30.8975 29.9745 31.3653 26.4941 33.3509 23.9266L31.7076 22.2834C28.3071 26.4484 28.3071 32.5306 31.7076 36.6957C34.6517 33.7516 37.6072 30.7961 40.5513 27.852C43.4954 30.7961 46.4509 33.7516 49.3949 36.6957C52.7955 32.5306 52.7955 26.4484 49.3949 22.2834L47.7517 23.9266C49.7487 26.5055 50.2051 29.9745 48.9499 32.9756C48.7902 33.3522 48.6076 33.7174 48.4022 34.0711L46.6905 32.3594C46.8731 31.9714 47.01 31.5721 47.1241 31.1498C47.8088 28.4226 46.7476 25.5584 44.4539 23.938L49.4064 18.9969C55.8422 24.4287 55.8879 34.4933 49.4064 39.9707C46.4509 37.0152 43.5068 34.0711 40.5513 31.1156C37.5958 34.0711 34.6517 37.0152 31.6962 39.9707C25.2147 34.5047 25.2718 24.4287 31.6962 18.9969Z" fill="#465364" fill-opacity="0.8"/>
<path d="M64.4006 32.5648C63.3052 29.4952 62.1755 26.4598 61.0001 23.4358C61.4223 23.4473 61.7761 23.4473 62.0385 23.4473C62.3352 23.4473 62.6775 23.4473 63.0769 23.4358L64.9484 28.9703L65.7357 31.1498C65.9069 30.8189 66.158 30.294 66.5003 29.5636C66.8426 28.8333 67.0823 28.297 67.2306 27.9547C67.0252 27.3271 66.7627 26.5739 66.4546 25.6838C66.1465 24.7938 65.8613 24.0521 65.633 23.4358C66.0096 23.4473 66.3405 23.4473 66.6258 23.4473C66.9453 23.4473 67.2762 23.4473 67.6186 23.4358C67.824 24.246 68.0636 25.0448 68.3147 25.8322C68.6912 25.022 69.0336 24.2232 69.3417 23.4358C69.7296 23.4473 70.0377 23.4473 70.2774 23.4473C70.5512 23.4473 70.8593 23.4473 71.2131 23.4358C70.9278 24.0064 70.5741 24.7367 70.1519 25.6268C69.7296 26.5169 69.3873 27.2586 69.1363 27.8406C69.239 28.1601 69.4215 28.7078 69.684 29.4724C69.9579 30.2369 70.1519 30.7846 70.2774 31.0927L72.0689 27.27L73.3698 24.4058L73.792 23.4244C74.2256 23.4358 74.568 23.4358 74.819 23.4358C75.1043 23.4358 75.4466 23.4358 75.8574 23.4244L74.6022 25.9235L71.9776 31.3096L71.3843 32.5534C70.905 32.542 70.4942 32.542 70.1633 32.542C69.8095 32.542 69.3987 32.542 68.9309 32.5534C68.6684 31.6519 68.3717 30.7732 68.0636 29.906C67.6414 30.7732 67.242 31.6519 66.8654 32.5534C66.3862 32.542 65.9754 32.542 65.633 32.542C65.2679 32.5534 64.8571 32.5648 64.4006 32.5648Z" fill="#465364" fill-opacity="0.8"/>
<path d="M76.5421 27.2586C76.5992 26.9391 76.6448 26.7109 76.6562 26.5854C76.6676 26.4598 76.7019 26.2544 76.7361 25.992C77.3409 25.855 77.8772 25.7523 78.3451 25.6953C78.8129 25.6382 79.258 25.604 79.6916 25.604C80.1823 25.604 80.6273 25.6611 81.0381 25.7752C81.4489 25.8893 81.7684 26.0719 81.9966 26.3229C82.2249 26.574 82.339 26.9277 82.339 27.3956C82.339 27.6466 82.3047 28.297 82.2363 29.3355C82.1678 30.3739 82.1222 31.4465 82.1108 32.5648C81.7684 32.5534 81.4603 32.5534 81.175 32.5534C80.9012 32.5534 80.5817 32.5534 80.2165 32.5648C80.2736 32.0285 80.3192 31.4009 80.3534 30.6934L80.4447 29.0274C80.2736 29.1415 80.148 29.2213 80.0567 29.267C79.9655 29.3126 79.8628 29.3583 79.7601 29.3925C79.6459 29.4267 79.452 29.4838 79.1667 29.5637C78.8814 29.6436 78.6646 29.712 78.4934 29.7691C78.3223 29.8261 78.1739 29.8946 78.037 29.9631C77.9 30.0315 77.7859 30.1228 77.6946 30.2141C77.6033 30.3054 77.5349 30.3967 77.4892 30.4994C77.4436 30.6021 77.4208 30.7048 77.4208 30.8189C77.4208 31.0015 77.4778 31.1727 77.5805 31.2982C77.6832 31.4237 77.8316 31.5264 77.9913 31.5835C78.1511 31.6405 78.3451 31.6633 78.5733 31.6633C78.7102 31.6633 78.87 31.6519 79.0297 31.6291C79.1895 31.6063 79.4063 31.5492 79.6688 31.4579C79.5775 31.709 79.4634 32.0855 79.3378 32.599C79.0183 32.6561 78.7673 32.6903 78.5847 32.7017C78.4021 32.7132 78.2195 32.7246 78.0598 32.7246C77.5006 32.7246 77.0328 32.6447 76.679 32.4963C76.3253 32.348 76.0514 32.1084 75.8803 31.7774C75.7091 31.4465 75.6178 31.1156 75.6178 30.7847C75.6178 30.5907 75.652 30.4081 75.7205 30.2141C75.789 30.0201 75.8803 29.8604 76.0172 29.7006C76.1541 29.5409 76.3139 29.3925 76.5193 29.2442C76.7247 29.0958 77.0214 28.9589 77.4094 28.822C77.7973 28.685 78.3108 28.5481 78.9499 28.4112C79.121 28.3769 79.2922 28.3313 79.4748 28.2856C79.6574 28.24 79.8057 28.1829 79.9084 28.1373C80.0111 28.0916 80.1138 28.0232 80.1937 27.9433C80.2736 27.8634 80.3306 27.7835 80.3763 27.7037C80.4219 27.6238 80.4333 27.5325 80.4333 27.4412C80.4333 27.27 80.3763 27.1217 80.2621 26.9962C80.148 26.8706 79.9997 26.7908 79.8171 26.7451C79.6345 26.6995 79.4405 26.6767 79.2237 26.6767C78.425 26.6767 77.5235 26.8706 76.5421 27.2586Z" fill="#465364" fill-opacity="0.8"/>
<path d="M83.6284 35.6344C83.7426 34.3905 83.8453 32.7816 83.9251 30.796C84.0164 28.8219 84.0621 27.2129 84.0621 25.9805C84.9065 25.8322 85.5683 25.7295 86.0248 25.6838C86.4927 25.6382 86.9491 25.6154 87.4055 25.6154C88.0103 25.6154 88.5581 25.6838 89.0602 25.8322C89.5623 25.9691 89.9617 26.2087 90.2583 26.5511C90.555 26.8934 90.7833 27.27 90.9316 27.715C91.0799 28.16 91.1484 28.6165 91.1484 29.0958C91.1484 29.5864 91.0799 30.0543 90.943 30.4993C90.8061 30.9444 90.5893 31.3552 90.304 31.7089C90.0187 32.0627 89.6878 32.3251 89.3112 32.4963C88.9346 32.656 88.5238 32.7359 88.0788 32.7359C87.8164 32.7359 87.5539 32.7017 87.3028 32.6446C87.0518 32.5876 86.8236 32.4963 86.6296 32.3936C86.4356 32.2909 86.2758 32.1882 86.1503 32.0855C86.0248 31.9828 85.865 31.823 85.671 31.6176L85.5683 34.5275L85.5798 34.9725C85.5798 35.0296 85.5683 35.2578 85.5683 35.6458C85.1575 35.6458 84.838 35.6344 84.6212 35.6344H83.6284ZM85.9107 27.2129C85.8764 27.4526 85.8536 27.658 85.8422 27.8291L85.7966 28.5708C85.7738 28.8904 85.7738 29.13 85.7738 29.2783C85.7738 29.5522 85.7966 29.8147 85.8536 30.0543C85.9107 30.3053 86.0248 30.5336 86.1846 30.739C86.3443 30.9444 86.5497 31.1041 86.7779 31.2182C87.0062 31.3323 87.2458 31.378 87.4854 31.378C87.8278 31.378 88.1359 31.2867 88.4097 31.0927C88.6836 30.8987 88.9004 30.6134 89.0602 30.2369C89.2199 29.8603 89.2884 29.4609 89.2884 29.0387C89.2884 28.5708 89.2085 28.1715 89.0373 27.8519C88.8662 27.5324 88.6494 27.2928 88.3641 27.1445C88.0788 26.9961 87.7593 26.9276 87.4055 26.9276C86.9605 26.9505 86.447 27.0303 85.9107 27.2129Z" fill="#465364" fill-opacity="0.8"/>
<path d="M92.3009 32.5648L92.4379 30.8303L92.5862 27.4982L92.6547 24.6454C92.6661 24.1319 92.6661 23.7325 92.6661 23.4473C93.1339 23.4587 93.4649 23.4587 93.6589 23.4587C93.8871 23.4587 94.1952 23.4587 94.5717 23.4473L94.4348 25.6154L94.2751 29.0844L94.2066 31.6747L94.1952 32.5762C93.7958 32.5648 93.4877 32.5648 93.2595 32.5648C93.0198 32.5534 92.7003 32.5648 92.3009 32.5648ZM94.4348 28.7649L95.7927 27.1102C95.9068 26.9733 96.0438 26.7907 96.2035 26.5853C96.3633 26.3799 96.5687 26.1061 96.8197 25.7751C97.2876 25.7866 97.6185 25.7866 97.8353 25.7866C98.132 25.7866 98.4972 25.7866 98.9536 25.7751L96.7513 28.297L96.3519 28.7763C96.6828 29.2898 97.5843 30.5564 99.0677 32.5762C98.6684 32.5648 98.326 32.5648 98.0407 32.5648C97.7555 32.5648 97.4017 32.5648 96.9795 32.5762C96.717 32.154 96.5116 31.8116 96.3519 31.5606C96.1921 31.3096 96.0438 31.0813 95.8954 30.8873L94.7543 29.267C94.7201 29.2099 94.606 29.0387 94.4348 28.7649Z" fill="#465364" fill-opacity="0.8"/>
<path d="M99.8209 32.5648C99.8893 31.8915 99.935 31.3324 99.9578 30.8873C100.003 30.1798 100.038 29.3468 100.072 28.4225C100.106 27.4982 100.129 26.6081 100.14 25.7637C100.574 25.7751 100.905 25.7751 101.122 25.7751C101.316 25.7751 101.647 25.7751 102.092 25.7637C102.035 26.5397 101.978 27.2814 101.943 27.9889C101.921 28.6964 101.886 29.4952 101.875 30.4081C101.863 31.3209 101.852 32.0399 101.852 32.5648C101.441 32.5534 101.122 32.5534 100.871 32.5534C100.642 32.5534 100.289 32.5648 99.8209 32.5648ZM100.186 24.5998C100.209 24.1433 100.209 23.7896 100.209 23.5385V23.3331C100.62 23.3445 100.939 23.3445 101.202 23.3445C101.544 23.3445 101.875 23.3445 102.172 23.3331C102.16 23.4472 102.149 23.5728 102.149 23.7097L102.115 24.5998C101.772 24.5884 101.464 24.5884 101.179 24.5884C100.894 24.5884 100.563 24.5998 100.186 24.5998Z" fill="#465364" fill-opacity="0.8"/>
<path d="M110.376 32.5647C109.988 32.5533 109.68 32.5533 109.475 32.5533C109.212 32.5533 108.916 32.5533 108.573 32.5647L108.585 31.4578C108.459 31.6404 108.345 31.8002 108.254 31.9143C108.162 32.0284 108.037 32.1425 107.889 32.2452C107.74 32.3479 107.569 32.4392 107.398 32.5077C107.227 32.5761 107.021 32.6218 106.782 32.6674C106.553 32.7131 106.314 32.7359 106.051 32.7359C105.549 32.7359 105.116 32.6674 104.751 32.5191C104.385 32.3707 104.089 32.1539 103.872 31.8572C103.655 31.5605 103.552 31.1383 103.552 30.5906V30.4537L103.655 28.7306L103.758 26.4598C103.758 26.2772 103.769 26.049 103.769 25.7751C104.191 25.7865 104.522 25.7865 104.762 25.7865C105.013 25.7865 105.321 25.7865 105.686 25.7751L105.469 28.8219C105.458 29.0615 105.447 29.2555 105.435 29.4152C105.424 29.575 105.424 29.7005 105.424 29.769C105.424 30.0885 105.469 30.351 105.572 30.5678C105.675 30.7846 105.835 30.9443 106.074 31.047C106.314 31.1612 106.565 31.2182 106.839 31.2182C107.101 31.2182 107.341 31.1726 107.569 31.0699C107.774 30.9786 107.957 30.8531 108.105 30.6933C108.254 30.5335 108.379 30.3167 108.482 30.0429C108.562 29.8489 108.619 29.575 108.653 29.2327C108.687 28.993 108.71 28.5708 108.744 27.966C108.779 27.2471 108.801 26.5054 108.824 25.7637C109.269 25.7751 109.6 25.7751 109.84 25.7751C110.102 25.7751 110.399 25.7751 110.73 25.7637C110.673 26.4027 110.616 27.2015 110.559 28.1486C110.502 29.0957 110.456 29.8945 110.445 30.5107C110.399 31.1497 110.388 31.823 110.376 32.5647Z" fill="#465364" fill-opacity="0.8"/>
</g>
<defs>
<clipPath id="clip0_2_295">
<rect width="91.7101" height="15.2942" fill="white" transform="translate(337.362 86.2667)"/>
</clipPath>
<clipPath id="clip1_2_295">
<rect width="83.8492" height="16.9646" fill="white" transform="translate(184.075 85.6222)"/>
</clipPath>
<clipPath id="clip2_2_295">
<rect width="72.0579" height="18.8124" fill="white" transform="translate(32.7539 84.3331)"/>
</clipPath>
<clipPath id="clip3_2_295">
<rect width="72.0579" height="16.701" fill="white" transform="translate(347.189 20.962)"/>
</clipPath>
<clipPath id="clip4_2_295">
<rect width="83.8492" height="23.7402" fill="white" transform="translate(184.075 17.6869)"/>
</clipPath>
<clipPath id="clip5_2_295">
<rect width="83.8492" height="20.9737" fill="white" transform="translate(26.8579 18.9969)"/>
</clipPath>
</defs>
</svg>
