<svg width="212" height="173" viewBox="0 0 212 173" fill="none" xmlns="http://www.w3.org/2000/svg">
<path d="M2.58391 102.189C3.87739 102.189 4.92597 101.122 4.92597 99.8071C4.92597 98.4918 3.87739 97.4255 2.58391 97.4255C1.29044 97.4255 0.241943 98.4918 0.241943 99.8071C0.241943 101.122 1.29044 102.189 2.58391 102.189Z" fill="#FF7628"/>
<path d="M25.5525 102.189C26.846 102.189 27.8946 101.122 27.8946 99.8071C27.8946 98.4918 26.846 97.4255 25.5525 97.4255C24.259 97.4255 23.2104 98.4918 23.2104 99.8071C23.2104 101.122 24.259 102.189 25.5525 102.189Z" fill="#FF7628"/>
<path d="M48.4928 102.189C49.7863 102.189 50.8349 101.122 50.8349 99.8071C50.8349 98.4918 49.7863 97.4255 48.4928 97.4255C47.1994 97.4255 46.1509 98.4918 46.1509 99.8071C46.1509 101.122 47.1994 102.189 48.4928 102.189Z" fill="#FF7628"/>
<path d="M71.4609 102.189C72.7544 102.189 73.803 101.122 73.803 99.8071C73.803 98.4918 72.7544 97.4255 71.4609 97.4255C70.1675 97.4255 69.1189 98.4918 69.1189 99.8071C69.1189 101.122 70.1675 102.189 71.4609 102.189Z" fill="#FF7628"/>
<path d="M94.4037 102.189C95.6971 102.189 96.7457 101.122 96.7457 99.8071C96.7457 98.4918 95.6971 97.4255 94.4037 97.4255C93.1102 97.4255 92.0617 98.4918 92.0617 99.8071C92.0617 101.122 93.1102 102.189 94.4037 102.189Z" fill="#FF7628"/>
<path d="M117.345 102.189C118.638 102.189 119.687 101.122 119.687 99.8071C119.687 98.4918 118.638 97.4255 117.345 97.4255C116.051 97.4255 115.003 98.4918 115.003 99.8071C115.003 101.122 116.051 102.189 117.345 102.189Z" fill="#FF7628"/>
<path d="M140.312 102.189C141.606 102.189 142.654 101.122 142.654 99.8071C142.654 98.4918 141.606 97.4255 140.312 97.4255C139.019 97.4255 137.97 98.4918 137.97 99.8071C137.97 101.122 139.019 102.189 140.312 102.189Z" fill="#FF7628"/>
<path d="M163.254 102.189C164.547 102.189 165.596 101.122 165.596 99.8071C165.596 98.4918 164.547 97.4255 163.254 97.4255C161.96 97.4255 160.912 98.4918 160.912 99.8071C160.912 101.122 161.96 102.189 163.254 102.189Z" fill="#FF7628"/>
<path d="M186.221 102.189C187.515 102.189 188.563 101.122 188.563 99.8071C188.563 98.4918 187.515 97.4255 186.221 97.4255C184.928 97.4255 183.879 98.4918 183.879 99.8071C183.879 101.122 184.928 102.189 186.221 102.189Z" fill="#FF7628"/>
<path d="M209.162 102.189C210.456 102.189 211.504 101.122 211.504 99.8071C211.504 98.4918 210.456 97.4255 209.162 97.4255C207.869 97.4255 206.82 98.4918 206.82 99.8071C206.82 101.122 207.869 102.189 209.162 102.189Z" fill="#FF7628"/>
<path d="M2.58391 125.544C3.87739 125.544 4.92597 124.477 4.92597 123.162C4.92597 121.847 3.87739 120.781 2.58391 120.781C1.29044 120.781 0.241943 121.847 0.241943 123.162C0.241943 124.477 1.29044 125.544 2.58391 125.544Z" fill="#FF7628"/>
<path d="M25.5525 125.544C26.846 125.544 27.8946 124.477 27.8946 123.162C27.8946 121.847 26.846 120.781 25.5525 120.781C24.259 120.781 23.2104 121.847 23.2104 123.162C23.2104 124.477 24.259 125.544 25.5525 125.544Z" fill="#FF7628"/>
<path d="M48.4928 125.544C49.7863 125.544 50.8349 124.477 50.8349 123.162C50.8349 121.847 49.7863 120.781 48.4928 120.781C47.1994 120.781 46.1509 121.847 46.1509 123.162C46.1509 124.477 47.1994 125.544 48.4928 125.544Z" fill="#FF7628"/>
<path d="M71.4609 125.544C72.7544 125.544 73.803 124.477 73.803 123.162C73.803 121.847 72.7544 120.781 71.4609 120.781C70.1675 120.781 69.1189 121.847 69.1189 123.162C69.1189 124.477 70.1675 125.544 71.4609 125.544Z" fill="#FF7628"/>
<path d="M94.4037 125.544C95.6971 125.544 96.7457 124.477 96.7457 123.162C96.7457 121.847 95.6971 120.781 94.4037 120.781C93.1102 120.781 92.0617 121.847 92.0617 123.162C92.0617 124.477 93.1102 125.544 94.4037 125.544Z" fill="#FF7628"/>
<path d="M117.345 125.544C118.638 125.544 119.687 124.477 119.687 123.162C119.687 121.847 118.638 120.781 117.345 120.781C116.051 120.781 115.003 121.847 115.003 123.162C115.003 124.477 116.051 125.544 117.345 125.544Z" fill="#FF7628"/>
<path d="M140.312 125.544C141.606 125.544 142.654 124.477 142.654 123.162C142.654 121.847 141.606 120.781 140.312 120.781C139.019 120.781 137.97 121.847 137.97 123.162C137.97 124.477 139.019 125.544 140.312 125.544Z" fill="#FF7628"/>
<path d="M163.254 125.544C164.547 125.544 165.596 124.477 165.596 123.162C165.596 121.847 164.547 120.781 163.254 120.781C161.96 120.781 160.912 121.847 160.912 123.162C160.912 124.477 161.96 125.544 163.254 125.544Z" fill="#FF7628"/>
<path d="M186.221 125.544C187.515 125.544 188.563 124.477 188.563 123.162C188.563 121.847 187.515 120.781 186.221 120.781C184.928 120.781 183.879 121.847 183.879 123.162C183.879 124.477 184.928 125.544 186.221 125.544Z" fill="#FF7628"/>
<path d="M209.162 125.544C210.456 125.544 211.504 124.477 211.504 123.162C211.504 121.847 210.456 120.781 209.162 120.781C207.869 120.781 206.82 121.847 206.82 123.162C206.82 124.477 207.869 125.544 209.162 125.544Z" fill="#FF7628"/>
<path d="M2.58391 148.872C3.87739 148.872 4.92597 147.806 4.92597 146.491C4.92597 145.175 3.87739 144.109 2.58391 144.109C1.29044 144.109 0.241943 145.175 0.241943 146.491C0.241943 147.806 1.29044 148.872 2.58391 148.872Z" fill="#FF7628"/>
<path d="M25.5525 148.872C26.846 148.872 27.8946 147.806 27.8946 146.491C27.8946 145.175 26.846 144.109 25.5525 144.109C24.259 144.109 23.2104 145.175 23.2104 146.491C23.2104 147.806 24.259 148.872 25.5525 148.872Z" fill="#FF7628"/>
<path d="M48.4928 148.872C49.7863 148.872 50.8349 147.806 50.8349 146.491C50.8349 145.175 49.7863 144.109 48.4928 144.109C47.1994 144.109 46.1509 145.175 46.1509 146.491C46.1509 147.806 47.1994 148.872 48.4928 148.872Z" fill="#FF7628"/>
<path d="M71.4609 148.872C72.7544 148.872 73.803 147.806 73.803 146.491C73.803 145.175 72.7544 144.109 71.4609 144.109C70.1675 144.109 69.1189 145.175 69.1189 146.491C69.1189 147.806 70.1675 148.872 71.4609 148.872Z" fill="#FF7628"/>
<path d="M94.4037 148.872C95.6971 148.872 96.7457 147.806 96.7457 146.491C96.7457 145.175 95.6971 144.109 94.4037 144.109C93.1102 144.109 92.0617 145.175 92.0617 146.491C92.0617 147.806 93.1102 148.872 94.4037 148.872Z" fill="#FF7628"/>
<path d="M117.345 148.872C118.638 148.872 119.687 147.806 119.687 146.491C119.687 145.175 118.638 144.109 117.345 144.109C116.051 144.109 115.003 145.175 115.003 146.491C115.003 147.806 116.051 148.872 117.345 148.872Z" fill="#FF7628"/>
<path d="M140.312 148.872C141.606 148.872 142.654 147.806 142.654 146.491C142.654 145.175 141.606 144.109 140.312 144.109C139.019 144.109 137.97 145.175 137.97 146.491C137.97 147.806 139.019 148.872 140.312 148.872Z" fill="#FF7628"/>
<path d="M163.254 148.872C164.547 148.872 165.596 147.806 165.596 146.491C165.596 145.175 164.547 144.109 163.254 144.109C161.96 144.109 160.912 145.175 160.912 146.491C160.912 147.806 161.96 148.872 163.254 148.872Z" fill="#FF7628"/>
<path d="M186.221 148.872C187.515 148.872 188.563 147.806 188.563 146.491C188.563 145.175 187.515 144.109 186.221 144.109C184.928 144.109 183.879 145.175 183.879 146.491C183.879 147.806 184.928 148.872 186.221 148.872Z" fill="#FF7628"/>
<path d="M209.162 148.872C210.456 148.872 211.504 147.806 211.504 146.491C211.504 145.175 210.456 144.109 209.162 144.109C207.869 144.109 206.82 145.175 206.82 146.491C206.82 147.806 207.869 148.872 209.162 148.872Z" fill="#FF7628"/>
<path d="M2.58391 172.201C3.87739 172.201 4.92597 171.134 4.92597 169.819C4.92597 168.504 3.87739 167.438 2.58391 167.438C1.29044 167.438 0.241943 168.504 0.241943 169.819C0.241943 171.134 1.29044 172.201 2.58391 172.201Z" fill="#FF7628"/>
<path d="M25.5525 172.201C26.846 172.201 27.8946 171.134 27.8946 169.819C27.8946 168.504 26.846 167.438 25.5525 167.438C24.259 167.438 23.2104 168.504 23.2104 169.819C23.2104 171.134 24.259 172.201 25.5525 172.201Z" fill="#FF7628"/>
<path d="M48.4928 172.201C49.7863 172.201 50.8349 171.134 50.8349 169.819C50.8349 168.504 49.7863 167.438 48.4928 167.438C47.1994 167.438 46.1509 168.504 46.1509 169.819C46.1509 171.134 47.1994 172.201 48.4928 172.201Z" fill="#FF7628"/>
<path d="M71.4609 172.201C72.7544 172.201 73.803 171.134 73.803 169.819C73.803 168.504 72.7544 167.438 71.4609 167.438C70.1675 167.438 69.1189 168.504 69.1189 169.819C69.1189 171.134 70.1675 172.201 71.4609 172.201Z" fill="#FF7628"/>
<path d="M94.4037 172.201C95.6971 172.201 96.7457 171.134 96.7457 169.819C96.7457 168.504 95.6971 167.438 94.4037 167.438C93.1102 167.438 92.0617 168.504 92.0617 169.819C92.0617 171.134 93.1102 172.201 94.4037 172.201Z" fill="#FF7628"/>
<path d="M117.345 172.201C118.638 172.201 119.687 171.134 119.687 169.819C119.687 168.504 118.638 167.438 117.345 167.438C116.051 167.438 115.003 168.504 115.003 169.819C115.003 171.134 116.051 172.201 117.345 172.201Z" fill="#FF7628"/>
<path d="M140.312 172.201C141.606 172.201 142.654 171.134 142.654 169.819C142.654 168.504 141.606 167.438 140.312 167.438C139.019 167.438 137.97 168.504 137.97 169.819C137.97 171.134 139.019 172.201 140.312 172.201Z" fill="#FF7628"/>
<path d="M163.254 172.201C164.547 172.201 165.596 171.134 165.596 169.819C165.596 168.504 164.547 167.438 163.254 167.438C161.96 167.438 160.912 168.504 160.912 169.819C160.912 171.134 161.96 172.201 163.254 172.201Z" fill="#FF7628"/>
<path d="M186.221 172.201C187.515 172.201 188.563 171.134 188.563 169.819C188.563 168.504 187.515 167.438 186.221 167.438C184.928 167.438 183.879 168.504 183.879 169.819C183.879 171.134 184.928 172.201 186.221 172.201Z" fill="#FF7628"/>
<path d="M209.162 172.201C210.456 172.201 211.504 171.134 211.504 169.819C211.504 168.504 210.456 167.438 209.162 167.438C207.869 167.438 206.82 168.504 206.82 169.819C206.82 171.134 207.869 172.201 209.162 172.201Z" fill="#FF7628"/>
<path d="M2.34197 4.76299C3.63544 4.76299 4.68402 3.69682 4.68402 2.38154C4.68402 1.06626 3.63544 0 2.34197 0C1.0485 0 0 1.06626 0 2.38154C0 3.69682 1.0485 4.76299 2.34197 4.76299Z" fill="#FF7628"/>
<path d="M25.3092 4.76299C26.6027 4.76299 27.6513 3.69682 27.6513 2.38154C27.6513 1.06626 26.6027 0 25.3092 0C24.0157 0 22.9672 1.06626 22.9672 2.38154C22.9672 3.69682 24.0157 4.76299 25.3092 4.76299Z" fill="#FF7628"/>
<path d="M48.2507 4.76299C49.5442 4.76299 50.5928 3.69682 50.5928 2.38154C50.5928 1.06626 49.5442 0 48.2507 0C46.9573 0 45.9088 1.06626 45.9088 2.38154C45.9088 3.69682 46.9573 4.76299 48.2507 4.76299Z" fill="#FF7628"/>
<path d="M71.2188 4.76299C72.5123 4.76299 73.5609 3.69682 73.5609 2.38154C73.5609 1.06626 72.5123 0 71.2188 0C69.9253 0 68.8768 1.06626 68.8768 2.38154C68.8768 3.69682 69.9253 4.76299 71.2188 4.76299Z" fill="#FF7628"/>
<path d="M94.1616 4.76299C95.4551 4.76299 96.5036 3.69682 96.5036 2.38154C96.5036 1.06626 95.4551 0 94.1616 0C92.8681 0 91.8196 1.06626 91.8196 2.38154C91.8196 3.69682 92.8681 4.76299 94.1616 4.76299Z" fill="#FF7628"/>
<path d="M117.103 4.76299C118.396 4.76299 119.445 3.69682 119.445 2.38154C119.445 1.06626 118.396 0 117.103 0C115.809 0 114.761 1.06626 114.761 2.38154C114.761 3.69682 115.809 4.76299 117.103 4.76299Z" fill="#FF7628"/>
<path d="M140.07 4.76299C141.363 4.76299 142.412 3.69682 142.412 2.38154C142.412 1.06626 141.363 0 140.07 0C138.777 0 137.728 1.06626 137.728 2.38154C137.728 3.69682 138.777 4.76299 140.07 4.76299Z" fill="#FF7628"/>
<path d="M163.012 4.76299C164.305 4.76299 165.354 3.69682 165.354 2.38154C165.354 1.06626 164.305 0 163.012 0C161.718 0 160.67 1.06626 160.67 2.38154C160.67 3.69682 161.718 4.76299 163.012 4.76299Z" fill="#FF7628"/>
<path d="M185.979 4.76299C187.273 4.76299 188.321 3.69682 188.321 2.38154C188.321 1.06626 187.273 0 185.979 0C184.686 0 183.637 1.06626 183.637 2.38154C183.637 3.69682 184.686 4.76299 185.979 4.76299Z" fill="#FF7628"/>
<path d="M208.92 4.76299C210.214 4.76299 211.262 3.69682 211.262 2.38154C211.262 1.06626 210.214 0 208.92 0C207.627 0 206.578 1.06626 206.578 2.38154C206.578 3.69682 207.627 4.76299 208.92 4.76299Z" fill="#FF7628"/>
<path d="M2.34197 28.118C3.63544 28.118 4.68402 27.0517 4.68402 25.7364C4.68402 24.4212 3.63544 23.355 2.34197 23.355C1.0485 23.355 0 24.4212 0 25.7364C0 27.0517 1.0485 28.118 2.34197 28.118Z" fill="#FF7628"/>
<path d="M25.3092 28.118C26.6027 28.118 27.6513 27.0517 27.6513 25.7364C27.6513 24.4212 26.6027 23.355 25.3092 23.355C24.0157 23.355 22.9672 24.4212 22.9672 25.7364C22.9672 27.0517 24.0157 28.118 25.3092 28.118Z" fill="#FF7628"/>
<path d="M48.2507 28.118C49.5442 28.118 50.5928 27.0517 50.5928 25.7364C50.5928 24.4212 49.5442 23.355 48.2507 23.355C46.9573 23.355 45.9088 24.4212 45.9088 25.7364C45.9088 27.0517 46.9573 28.118 48.2507 28.118Z" fill="#FF7628"/>
<path d="M71.2188 28.118C72.5123 28.118 73.5609 27.0517 73.5609 25.7364C73.5609 24.4212 72.5123 23.355 71.2188 23.355C69.9253 23.355 68.8768 24.4212 68.8768 25.7364C68.8768 27.0517 69.9253 28.118 71.2188 28.118Z" fill="#FF7628"/>
<path d="M94.1616 28.118C95.4551 28.118 96.5036 27.0517 96.5036 25.7364C96.5036 24.4212 95.4551 23.355 94.1616 23.355C92.8681 23.355 91.8196 24.4212 91.8196 25.7364C91.8196 27.0517 92.8681 28.118 94.1616 28.118Z" fill="#FF7628"/>
<path d="M117.103 28.118C118.396 28.118 119.445 27.0517 119.445 25.7364C119.445 24.4212 118.396 23.355 117.103 23.355C115.809 23.355 114.761 24.4212 114.761 25.7364C114.761 27.0517 115.809 28.118 117.103 28.118Z" fill="#FF7628"/>
<path d="M140.07 28.118C141.363 28.118 142.412 27.0517 142.412 25.7364C142.412 24.4212 141.363 23.355 140.07 23.355C138.777 23.355 137.728 24.4212 137.728 25.7364C137.728 27.0517 138.777 28.118 140.07 28.118Z" fill="#FF7628"/>
<path d="M163.012 28.118C164.305 28.118 165.354 27.0517 165.354 25.7364C165.354 24.4212 164.305 23.355 163.012 23.355C161.718 23.355 160.67 24.4212 160.67 25.7364C160.67 27.0517 161.718 28.118 163.012 28.118Z" fill="#FF7628"/>
<path d="M185.979 28.118C187.273 28.118 188.321 27.0517 188.321 25.7364C188.321 24.4212 187.273 23.355 185.979 23.355C184.686 23.355 183.637 24.4212 183.637 25.7364C183.637 27.0517 184.686 28.118 185.979 28.118Z" fill="#FF7628"/>
<path d="M208.92 28.118C210.214 28.118 211.262 27.0517 211.262 25.7364C211.262 24.4212 210.214 23.355 208.92 23.355C207.627 23.355 206.578 24.4212 206.578 25.7364C206.578 27.0517 207.627 28.118 208.92 28.118Z" fill="#FF7628"/>
<path d="M2.34197 51.4459C3.63544 51.4459 4.68402 50.3797 4.68402 49.0644C4.68402 47.7491 3.63544 46.6829 2.34197 46.6829C1.0485 46.6829 0 47.7491 0 49.0644C0 50.3797 1.0485 51.4459 2.34197 51.4459Z" fill="#FF7628"/>
<path d="M25.3092 51.4459C26.6027 51.4459 27.6513 50.3797 27.6513 49.0644C27.6513 47.7491 26.6027 46.6829 25.3092 46.6829C24.0157 46.6829 22.9672 47.7491 22.9672 49.0644C22.9672 50.3797 24.0157 51.4459 25.3092 51.4459Z" fill="#FF7628"/>
<path d="M48.2507 51.4459C49.5442 51.4459 50.5928 50.3797 50.5928 49.0644C50.5928 47.7491 49.5442 46.6829 48.2507 46.6829C46.9573 46.6829 45.9088 47.7491 45.9088 49.0644C45.9088 50.3797 46.9573 51.4459 48.2507 51.4459Z" fill="#FF7628"/>
<path d="M71.2188 51.4459C72.5123 51.4459 73.5609 50.3797 73.5609 49.0644C73.5609 47.7491 72.5123 46.6829 71.2188 46.6829C69.9253 46.6829 68.8768 47.7491 68.8768 49.0644C68.8768 50.3797 69.9253 51.4459 71.2188 51.4459Z" fill="#FF7628"/>
<path d="M94.1616 51.4459C95.4551 51.4459 96.5036 50.3797 96.5036 49.0644C96.5036 47.7491 95.4551 46.6829 94.1616 46.6829C92.8681 46.6829 91.8196 47.7491 91.8196 49.0644C91.8196 50.3797 92.8681 51.4459 94.1616 51.4459Z" fill="#FF7628"/>
<path d="M117.103 51.4459C118.396 51.4459 119.445 50.3797 119.445 49.0644C119.445 47.7491 118.396 46.6829 117.103 46.6829C115.809 46.6829 114.761 47.7491 114.761 49.0644C114.761 50.3797 115.809 51.4459 117.103 51.4459Z" fill="#FF7628"/>
<path d="M140.07 51.4459C141.363 51.4459 142.412 50.3797 142.412 49.0644C142.412 47.7491 141.363 46.6829 140.07 46.6829C138.777 46.6829 137.728 47.7491 137.728 49.0644C137.728 50.3797 138.777 51.4459 140.07 51.4459Z" fill="#FF7628"/>
<path d="M163.012 51.4459C164.305 51.4459 165.354 50.3797 165.354 49.0644C165.354 47.7491 164.305 46.6829 163.012 46.6829C161.718 46.6829 160.67 47.7491 160.67 49.0644C160.67 50.3797 161.718 51.4459 163.012 51.4459Z" fill="#FF7628"/>
<path d="M185.979 51.4459C187.273 51.4459 188.321 50.3797 188.321 49.0644C188.321 47.7491 187.273 46.6829 185.979 46.6829C184.686 46.6829 183.637 47.7491 183.637 49.0644C183.637 50.3797 184.686 51.4459 185.979 51.4459Z" fill="#FF7628"/>
<path d="M208.92 51.4459C210.214 51.4459 211.262 50.3797 211.262 49.0644C211.262 47.7491 210.214 46.6829 208.92 46.6829C207.627 46.6829 206.578 47.7491 206.578 49.0644C206.578 50.3797 207.627 51.4459 208.92 51.4459Z" fill="#FF7628"/>
<path d="M2.34197 74.7744C3.63544 74.7744 4.68402 73.7082 4.68402 72.3929C4.68402 71.0776 3.63544 70.0114 2.34197 70.0114C1.0485 70.0114 0 71.0776 0 72.3929C0 73.7082 1.0485 74.7744 2.34197 74.7744Z" fill="#FF7628"/>
<path d="M25.3092 74.7744C26.6027 74.7744 27.6513 73.7082 27.6513 72.3929C27.6513 71.0776 26.6027 70.0114 25.3092 70.0114C24.0157 70.0114 22.9672 71.0776 22.9672 72.3929C22.9672 73.7082 24.0157 74.7744 25.3092 74.7744Z" fill="#FF7628"/>
<path d="M48.2507 74.7744C49.5442 74.7744 50.5928 73.7082 50.5928 72.3929C50.5928 71.0776 49.5442 70.0114 48.2507 70.0114C46.9573 70.0114 45.9088 71.0776 45.9088 72.3929C45.9088 73.7082 46.9573 74.7744 48.2507 74.7744Z" fill="#FF7628"/>
<path d="M71.2188 74.7744C72.5123 74.7744 73.5609 73.7082 73.5609 72.3929C73.5609 71.0776 72.5123 70.0114 71.2188 70.0114C69.9253 70.0114 68.8768 71.0776 68.8768 72.3929C68.8768 73.7082 69.9253 74.7744 71.2188 74.7744Z" fill="#FF7628"/>
<path d="M94.1616 74.7744C95.4551 74.7744 96.5036 73.7082 96.5036 72.3929C96.5036 71.0776 95.4551 70.0114 94.1616 70.0114C92.8681 70.0114 91.8196 71.0776 91.8196 72.3929C91.8196 73.7082 92.8681 74.7744 94.1616 74.7744Z" fill="#FF7628"/>
<path d="M117.103 74.7744C118.396 74.7744 119.445 73.7082 119.445 72.3929C119.445 71.0776 118.396 70.0114 117.103 70.0114C115.809 70.0114 114.761 71.0776 114.761 72.3929C114.761 73.7082 115.809 74.7744 117.103 74.7744Z" fill="#FF7628"/>
<path d="M140.07 74.7744C141.363 74.7744 142.412 73.7082 142.412 72.3929C142.412 71.0776 141.363 70.0114 140.07 70.0114C138.777 70.0114 137.728 71.0776 137.728 72.3929C137.728 73.7082 138.777 74.7744 140.07 74.7744Z" fill="#FF7628"/>
<path d="M163.012 74.7744C164.305 74.7744 165.354 73.7082 165.354 72.3929C165.354 71.0776 164.305 70.0114 163.012 70.0114C161.718 70.0114 160.67 71.0776 160.67 72.3929C160.67 73.7082 161.718 74.7744 163.012 74.7744Z" fill="#FF7628"/>
<path d="M185.979 74.7744C187.273 74.7744 188.321 73.7082 188.321 72.3929C188.321 71.0776 187.273 70.0114 185.979 70.0114C184.686 70.0114 183.637 71.0776 183.637 72.3929C183.637 73.7082 184.686 74.7744 185.979 74.7744Z" fill="#FF7628"/>
<path d="M208.92 74.7744C210.214 74.7744 211.262 73.7082 211.262 72.3929C211.262 71.0776 210.214 70.0114 208.92 70.0114C207.627 70.0114 206.578 71.0776 206.578 72.3929C206.578 73.7082 207.627 74.7744 208.92 74.7744Z" fill="#FF7628"/>
</svg>
